<?xml version="1.0" encoding="UTF-8" standalone="no"?>
<svg
   id="Camada_1"
   data-name="Camada 1"
   viewBox="0 0 1166400 1166400"
   version="1.1"
   width="1166400"
   height="1166400"
   xmlns="http://www.w3.org/2000/svg"
   xmlns:svg="http://www.w3.org/2000/svg">
  <defs
     id="defs1">
    <style
       id="style1">
      .cls-1 {
        fill: #f0ff31;
      }
    </style>
  </defs>
  <g
     id="g8">
    <g
       id="g1">
      <polygon
         class="cls-1"
         points="398.97,568.73 399.46,568.73 "
         id="polygon1" />
      <path
         class="cls-1"
         d="m 402.1,511.52 c -10.89,0 -26.46,1.27 -26.46,1.39 v 84.78 c 0,0.51 0.41,0.92 0.92,0.92 h 20.56 c 0.51,0 0.92,-0.41 0.92,-0.92 v -19.74 c 0,-0.68 -0.25,-1.34 -0.71,-1.84 l -5.31,-5.82 c -0.54,-0.59 -0.12,-1.54 0.68,-1.54 h 6.26 c 0,0 0,0 0,0 h 8.36 c 3.64,-0.04 8.62,-0.42 12.12,-1.14 1.55,-0.3 3.12,-0.67 4.68,-1.12 11.68,-3.37 22.91,-11.33 22.91,-28.75 0,-24.05 -23.55,-26.2 -44.94,-26.2 z m 15.2,44.43 c -2.85,1.31 -6.29,1.9 -10.14,1.9 -4.53,0 -7.3,-0.67 -8.47,-1.04 -0.38,-0.12 -0.63,-0.46 -0.64,-0.86 0,0 0,-0.01 0,-0.02 v -32.36 c 0,-0.46 0.33,-0.84 0.78,-0.91 1.23,-0.18 3.77,-0.51 6.56,-0.51 10.76,0 20.76,2.4 20.76,17.34 0,8.75 -3.35,13.93 -8.85,16.45 z"
         id="path1" />
    </g>
    <path
       class="cls-1"
       d="m 470.84,512.9 h 25.55 c 0.39,0 0.74,0.24 0.87,0.61 l 29.97,83.85 c 0.21,0.6 -0.23,1.23 -0.87,1.23 h -22.21 c -0.39,0 -0.74,-0.25 -0.87,-0.62 l -7.04,-20.65 c -0.13,-0.37 -0.48,-0.62 -0.87,-0.62 h -30.7 c -0.4,0 -0.75,0.25 -0.87,0.63 l -6.92,20.64 c -0.13,0.38 -0.48,0.63 -0.87,0.63 h -16.24 c -0.64,0 -1.09,-0.64 -0.86,-1.24 L 470,513.51 c 0.13,-0.36 0.48,-0.6 0.86,-0.6 z m 20.59,50.3 -10.61,-31.28 c -0.28,-0.83 -1.46,-0.83 -1.74,0 l -10.61,31.28 c -0.2,0.6 0.24,1.22 0.87,1.22 h 21.23 c 0.63,0 1.07,-0.62 0.87,-1.22 z"
       id="path2" />
    <path
       class="cls-1"
       d="m 709.31,512.9 h 25.55 c 0.39,0 0.74,0.24 0.87,0.61 l 29.97,83.85 c 0.21,0.6 -0.23,1.23 -0.87,1.23 h -22.21 c -0.39,0 -0.74,-0.25 -0.87,-0.62 l -7.04,-20.65 c -0.13,-0.37 -0.48,-0.62 -0.87,-0.62 h -30.7 c -0.4,0 -0.75,0.25 -0.87,0.63 l -6.92,20.64 c -0.13,0.38 -0.48,0.63 -0.87,0.63 h -16.24 c -0.64,0 -1.09,-0.64 -0.86,-1.24 l 31.09,-83.85 c 0.13,-0.36 0.48,-0.6 0.86,-0.6 z m 20.59,50.3 -10.61,-31.28 c -0.28,-0.83 -1.46,-0.83 -1.74,0 l -10.61,31.28 c -0.2,0.6 0.24,1.22 0.87,1.22 h 21.23 c 0.63,0 1.07,-0.62 0.87,-1.22 z"
       id="path3" />
    <path
       class="cls-1"
       d="m 775.41,512.9 h 23.38 c 0.31,0 0.61,0.16 0.78,0.43 l 33.22,52.22 c 0.49,0.78 1.7,0.43 1.7,-0.49 v -51.23 c 0,-0.51 0.41,-0.92 0.92,-0.92 h 15.88 c 0.51,0 0.92,0.41 0.92,0.92 v 83.85 c 0,0.51 -0.41,0.92 -0.92,0.92 h -21.74 c -0.31,0 -0.61,-0.16 -0.78,-0.42 l -35.12,-54.9 c -0.5,-0.78 -1.7,-0.42 -1.7,0.5 v 53.9 c 0,0.51 -0.41,0.92 -0.92,0.92 H 775.4 c -0.51,0 -0.92,-0.41 -0.92,-0.92 v -83.85 c 0,-0.51 0.41,-0.92 0.92,-0.92 z"
       id="path4" />
    <path
       class="cls-1"
       d="m 684.97,512.9 h -72.89 c -0.55,0 -1,0.45 -1,1 v 10.79 c 0,0.55 0.45,1 1,1 h 24.21 c 0.55,0 1,0.45 1,1 v 70.91 c 0,0.55 0.45,1 1,1 h 20.54 c 0.55,0 1,-0.45 1,-1 V 535 c 0,-0.75 -0.28,-1.47 -0.78,-2.02 l -5.12,-5.62 c -0.58,-0.64 -0.13,-1.67 0.73,-1.67 v 0 c 0,0 6.09,0 6.09,0 0,0 0,0 0,0 h 8.36 c 0.79,-0.01 1.64,-0.03 2.53,-0.07 l 13.83,-0.06 c 0.27,-0.16 0.44,-0.45 0.44,-0.78 v -10.94 0 c 0,-0.51 -0.41,-0.92 -0.92,-0.92 z"
       id="path5" />
    <path
       class="cls-1"
       d="m 613.37,597.13 -27.41,-35.92 c -0.39,-0.51 -0.15,-1.26 0.46,-1.44 12.13,-3.55 20.99,-12.36 20.99,-24.84 0,-21.39 -24.43,-23.42 -41.9,-23.42 -9.89,0 -20.72,0.82 -28.63,1.34 -0.07,0 -0.15,0.02 -0.21,0.04 -0.38,0.12 -0.65,0.47 -0.65,0.88 v 83.91 c 0,0.43 0.3,0.79 0.7,0.89 0.07,0.02 0.15,0.03 0.22,0.03 h 20.56 c 0.51,0 0.92,-0.41 0.92,-0.92 v -0.06 c 0,0 0,-0.02 0,-0.03 v -62.6 c 0,0 0,-0.02 0,-0.04 0,-0.73 -0.28,-1.44 -0.78,-1.99 l -5.12,-5.62 c -0.58,-0.64 -0.13,-1.67 0.73,-1.67 h 5.17 c 0,0 0.92,0 0.92,0 0,0 0,0 0,0 h 8.36 c 0.79,-0.01 1.64,-0.03 2.53,-0.07 h 3.29 c 6.66,-0.04 12.2,5.28 12.25,11.94 0,0.06 0,0.11 0,0.17 0,10.22 -7.9,16.49 -18.59,16.82 -0.36,0.01 -0.78,0.16 -0.62,0.71 l 21.21,43.17 c 0.16,0.12 0.34,0.19 0.54,0.19 h 24.33 c 0.76,0 1.19,-0.87 0.73,-1.48 z"
       id="path6" />
    <path
       class="cls-1"
       d="m 929.29,572.14 c 0,-15.06 -9.87,-20.25 -21.52,-25.32 -2.11,-0.92 -4.61,-1.84 -7.13,-2.89 -0.54,-0.22 -1.09,-0.45 -1.63,-0.69 -6.34,-2.75 -12.38,-6.36 -12.38,-12.5 0,-1.99 0.66,-3.58 1.79,-4.78 1.88,-2 5.08,-2.94 8.72,-2.94 0.34,0 0.68,0 1.02,0.02 0.09,0 0.17,0.01 0.26,0.02 0.25,0.01 0.5,0.03 0.75,0.05 0.13,0 0.25,0.02 0.37,0.04 0.21,0.02 0.42,0.04 0.64,0.06 0.13,0.02 0.27,0.04 0.4,0.05 0.2,0.03 0.4,0.05 0.6,0.08 0.14,0.02 0.28,0.05 0.42,0.07 0.19,0.03 0.39,0.06 0.58,0.1 0.14,0.03 0.29,0.06 0.43,0.09 0.19,0.04 0.37,0.07 0.56,0.11 0.15,0.03 0.29,0.07 0.43,0.1 0.18,0.04 0.37,0.08 0.55,0.13 0.15,0.04 0.29,0.08 0.44,0.11 0.18,0.05 0.36,0.09 0.53,0.14 0.15,0.04 0.29,0.08 0.44,0.12 0.18,0.05 0.35,0.1 0.52,0.15 0.14,0.04 0.29,0.09 0.43,0.13 0.17,0.05 0.34,0.11 0.52,0.16 0.14,0.05 0.29,0.1 0.43,0.14 0.17,0.06 0.33,0.11 0.5,0.17 0.14,0.05 0.28,0.1 0.43,0.15 0.16,0.06 0.33,0.12 0.49,0.18 0.14,0.05 0.28,0.11 0.41,0.16 0.16,0.06 0.32,0.12 0.48,0.19 0.14,0.05 0.27,0.11 0.41,0.17 0.15,0.06 0.31,0.13 0.46,0.19 0.13,0.06 0.27,0.11 0.4,0.17 0.15,0.06 0.3,0.13 0.45,0.19 0.13,0.06 0.26,0.12 0.39,0.17 0.15,0.07 0.29,0.13 0.44,0.2 0.13,0.06 0.25,0.12 0.38,0.18 0.14,0.07 0.28,0.13 0.42,0.2 0.12,0.06 0.24,0.12 0.37,0.18 0.14,0.07 0.27,0.13 0.41,0.2 0.12,0.06 0.23,0.12 0.35,0.18 0.13,0.07 0.26,0.13 0.39,0.2 0.11,0.06 0.23,0.12 0.34,0.18 0.12,0.07 0.25,0.13 0.37,0.2 0.11,0.06 0.21,0.11 0.32,0.17 0.12,0.07 0.24,0.13 0.36,0.2 0.1,0.06 0.2,0.11 0.31,0.17 0.11,0.06 0.22,0.13 0.33,0.19 0.1,0.06 0.2,0.11 0.29,0.17 0.11,0.06 0.21,0.12 0.31,0.18 0.09,0.05 0.19,0.11 0.28,0.16 0.1,0.06 0.2,0.12 0.29,0.17 0.09,0.05 0.17,0.1 0.26,0.16 0.09,0.06 0.18,0.11 0.27,0.16 0.08,0.05 0.16,0.1 0.24,0.15 0.09,0.05 0.17,0.11 0.25,0.16 0.07,0.05 0.14,0.09 0.21,0.13 0.08,0.05 0.16,0.1 0.23,0.15 0.07,0.04 0.13,0.08 0.19,0.12 0.07,0.05 0.14,0.09 0.21,0.13 0.06,0.04 0.12,0.08 0.17,0.11 0.06,0.04 0.12,0.08 0.18,0.12 0.05,0.03 0.1,0.07 0.15,0.1 0.05,0.04 0.1,0.07 0.15,0.1 0.05,0.03 0.09,0.06 0.13,0.09 0.04,0.03 0.08,0.06 0.12,0.08 0.04,0.03 0.08,0.05 0.11,0.08 0.06,0.04 0.11,0.08 0.15,0.11 0.16,0.11 0.34,0.17 0.53,0.17 h 0.62 c 0.48,0 0.88,-0.37 0.92,-0.85 l 0.04,-0.46 c 0,0 0,0 0,0 l 0.49,-6.45 0.62,-8.14 c 0.03,-0.41 -0.21,-0.79 -0.59,-0.93 -0.11,-0.04 -0.23,-0.09 -0.36,-0.13 0,0 0,0 0,0 -0.03,-0.01 -0.07,-0.03 -0.11,-0.04 -0.04,-0.01 -0.07,-0.03 -0.11,-0.04 -0.07,-0.02 -0.14,-0.05 -0.21,-0.07 -0.04,-0.01 -0.08,-0.03 -0.12,-0.04 -0.07,-0.03 -0.15,-0.05 -0.22,-0.08 -0.05,-0.02 -0.1,-0.03 -0.15,-0.05 -0.08,-0.03 -0.16,-0.05 -0.24,-0.08 -0.05,-0.02 -0.1,-0.03 -0.16,-0.05 -0.09,-0.03 -0.18,-0.06 -0.28,-0.09 -0.05,-0.02 -0.11,-0.03 -0.16,-0.05 -0.1,-0.03 -0.2,-0.06 -0.3,-0.09 -0.06,-0.02 -0.11,-0.04 -0.17,-0.05 -0.11,-0.03 -0.23,-0.07 -0.34,-0.1 -0.05,-0.02 -0.11,-0.03 -0.16,-0.05 -0.13,-0.04 -0.26,-0.08 -0.4,-0.12 -0.05,-0.01 -0.09,-0.03 -0.14,-0.04 -0.18,-0.05 -0.37,-0.11 -0.57,-0.16 0,0 0,0 0,0 -0.4,-0.11 -0.82,-0.22 -1.26,-0.33 -0.06,-0.02 -0.13,-0.03 -0.2,-0.05 -0.16,-0.04 -0.31,-0.08 -0.48,-0.12 -0.08,-0.02 -0.17,-0.04 -0.25,-0.06 -0.15,-0.04 -0.3,-0.07 -0.46,-0.11 -0.1,-0.02 -0.19,-0.04 -0.29,-0.07 -0.15,-0.03 -0.29,-0.07 -0.44,-0.1 -0.11,-0.02 -0.21,-0.05 -0.32,-0.07 -0.15,-0.03 -0.3,-0.06 -0.45,-0.1 -0.11,-0.02 -0.22,-0.05 -0.33,-0.07 -0.15,-0.03 -0.31,-0.06 -0.47,-0.1 -0.12,-0.02 -0.24,-0.05 -0.35,-0.07 -0.15,-0.03 -0.31,-0.06 -0.47,-0.09 -0.13,-0.02 -0.25,-0.05 -0.38,-0.07 -0.16,-0.03 -0.31,-0.06 -0.47,-0.09 -0.13,-0.02 -0.26,-0.05 -0.4,-0.07 -0.16,-0.03 -0.33,-0.06 -0.49,-0.08 -0.14,-0.02 -0.27,-0.04 -0.41,-0.07 -0.17,-0.03 -0.33,-0.05 -0.5,-0.08 -0.14,-0.02 -0.28,-0.04 -0.43,-0.06 -0.17,-0.02 -0.34,-0.05 -0.51,-0.07 -0.15,-0.02 -0.29,-0.04 -0.44,-0.06 -0.17,-0.02 -0.35,-0.05 -0.53,-0.07 -0.15,-0.02 -0.3,-0.04 -0.45,-0.06 -0.18,-0.02 -0.36,-0.04 -0.55,-0.06 -0.15,-0.02 -0.31,-0.04 -0.46,-0.05 -0.19,-0.02 -0.37,-0.04 -0.56,-0.06 -0.16,-0.02 -0.31,-0.03 -0.47,-0.05 -0.19,-0.02 -0.38,-0.04 -0.58,-0.05 -0.16,-0.01 -0.32,-0.03 -0.48,-0.04 -0.2,-0.02 -0.39,-0.03 -0.59,-0.05 -0.16,-0.01 -0.32,-0.03 -0.49,-0.04 -0.21,-0.01 -0.41,-0.03 -0.62,-0.04 -0.16,-0.01 -0.32,-0.02 -0.48,-0.03 -0.21,-0.01 -0.43,-0.02 -0.65,-0.03 -0.16,0 -0.32,-0.02 -0.49,-0.02 -0.23,0 -0.46,-0.02 -0.68,-0.02 -0.16,0 -0.31,-0.01 -0.47,-0.02 -0.25,0 -0.51,-0.01 -0.76,-0.02 -0.14,0 -0.28,0 -0.42,0 -0.39,0 -0.79,0 -1.2,0 -0.54,0 -1.07,0 -1.6,0.02 -0.2,0 -0.4,0.02 -0.6,0.03 -0.33,0.01 -0.65,0.03 -0.98,0.04 -0.26,0.02 -0.51,0.04 -0.77,0.06 -0.26,0.02 -0.52,0.04 -0.78,0.06 -0.29,0.03 -0.58,0.06 -0.87,0.09 -0.22,0.02 -0.44,0.05 -0.66,0.07 -0.32,0.04 -0.63,0.08 -0.94,0.13 -0.19,0.03 -0.37,0.05 -0.56,0.08 -0.33,0.05 -0.66,0.11 -0.99,0.17 -0.16,0.03 -0.32,0.05 -0.47,0.08 -0.35,0.07 -0.69,0.14 -1.04,0.21 -0.13,0.03 -0.26,0.06 -0.39,0.09 -0.36,0.08 -0.72,0.17 -1.07,0.26 -0.11,0.03 -0.22,0.05 -0.32,0.08 -0.37,0.1 -0.74,0.2 -1.1,0.31 -0.09,0.03 -0.17,0.05 -0.26,0.08 -0.38,0.12 -0.75,0.24 -1.12,0.37 -0.07,0.02 -0.13,0.04 -0.2,0.07 -0.39,0.13 -0.77,0.28 -1.14,0.42 -0.05,0.02 -0.1,0.04 -0.15,0.06 -0.39,0.15 -0.77,0.31 -1.15,0.48 -0.03,0.01 -0.06,0.03 -0.1,0.04 -0.39,0.17 -0.78,0.35 -1.16,0.54 -0.02,0 -0.03,0.02 -0.05,0.02 -0.39,0.2 -0.78,0.4 -1.16,0.61 0,0 0,0 0,0 -5.72,3.17 -9.9,8.05 -11.58,14.73 0,0.02 -0.02,0.04 -0.03,0.07 -0.02,0.08 -0.03,0.17 -0.05,0.25 -0.07,0.31 -0.14,0.63 -0.2,0.96 -0.04,0.2 -0.08,0.39 -0.11,0.59 -0.06,0.33 -0.11,0.68 -0.15,1.02 -0.03,0.2 -0.06,0.39 -0.08,0.59 -0.04,0.37 -0.07,0.76 -0.1,1.14 -0.01,0.18 -0.03,0.35 -0.04,0.52 -0.03,0.56 -0.05,1.14 -0.05,1.72 0,14.81 10.63,20.51 23.04,26.2 8.48,3.92 19.49,7.22 19.49,15.82 0,4.67 -2.23,7.26 -5.29,8.55 -0.31,0.13 -0.62,0.24 -0.94,0.35 -0.64,0.21 -1.31,0.36 -2,0.48 -1.03,0.17 -2.1,0.25 -3.17,0.25 -0.44,0 -0.89,-0.01 -1.33,-0.04 -0.15,0 -0.3,-0.02 -0.44,-0.03 -0.29,-0.02 -0.59,-0.04 -0.88,-0.07 -0.17,-0.02 -0.35,-0.04 -0.52,-0.06 -0.26,-0.03 -0.53,-0.06 -0.79,-0.1 -0.18,-0.03 -0.37,-0.06 -0.55,-0.09 -0.25,-0.04 -0.5,-0.08 -0.75,-0.13 -0.19,-0.04 -0.37,-0.07 -0.56,-0.11 -0.24,-0.05 -0.48,-0.1 -0.72,-0.16 -0.19,-0.04 -0.37,-0.09 -0.56,-0.13 -0.24,-0.06 -0.48,-0.12 -0.72,-0.19 -0.18,-0.05 -0.36,-0.1 -0.54,-0.15 -0.24,-0.07 -0.48,-0.14 -0.72,-0.22 -0.17,-0.05 -0.35,-0.11 -0.52,-0.16 -0.25,-0.08 -0.49,-0.17 -0.74,-0.25 -0.16,-0.06 -0.32,-0.11 -0.47,-0.17 -0.28,-0.1 -0.55,-0.21 -0.82,-0.31 -0.12,-0.05 -0.25,-0.09 -0.37,-0.14 -0.39,-0.16 -0.78,-0.32 -1.16,-0.48 -0.04,-0.02 -0.08,-0.04 -0.12,-0.05 -0.34,-0.15 -0.68,-0.3 -1.02,-0.46 -0.12,-0.06 -0.23,-0.11 -0.35,-0.17 -0.26,-0.12 -0.51,-0.24 -0.76,-0.37 -0.13,-0.06 -0.26,-0.13 -0.39,-0.2 -0.23,-0.12 -0.47,-0.24 -0.7,-0.36 -0.13,-0.07 -0.26,-0.14 -0.39,-0.21 -0.22,-0.12 -0.45,-0.24 -0.67,-0.36 -0.12,-0.07 -0.24,-0.14 -0.37,-0.21 -0.22,-0.13 -0.44,-0.25 -0.66,-0.38 -0.11,-0.06 -0.22,-0.13 -0.33,-0.19 -0.23,-0.14 -0.45,-0.27 -0.67,-0.41 -0.07,-0.04 -0.13,-0.08 -0.2,-0.12 -2.21,-1.36 -4.21,-3.04 -5.99,-4.94 l -1.68,-1.8 c -0.84,-0.9 -2.36,-0.37 -2.46,0.86 l -0.77,9.53 -0.66,8.13 c -0.03,0.39 0.18,0.76 0.54,0.91 0.1,0.04 0.21,0.09 0.33,0.15 0,0 0,0 0,0 0.03,0.01 0.06,0.03 0.09,0.04 0.06,0.03 0.12,0.05 0.18,0.08 0.05,0.02 0.1,0.04 0.15,0.06 0.06,0.03 0.13,0.05 0.2,0.08 0.06,0.02 0.12,0.05 0.18,0.07 0.07,0.03 0.14,0.06 0.21,0.09 0.07,0.03 0.14,0.05 0.2,0.08 0.08,0.03 0.15,0.06 0.24,0.09 0.07,0.03 0.15,0.06 0.23,0.09 0.08,0.03 0.16,0.06 0.25,0.1 0.11,0.04 0.23,0.09 0.35,0.13 0.06,0.02 0.11,0.04 0.17,0.06 0.18,0.07 0.37,0.13 0.57,0.2 0.05,0.02 0.1,0.03 0.14,0.05 0.15,0.05 0.3,0.11 0.46,0.16 0.08,0.03 0.16,0.05 0.24,0.08 0.13,0.05 0.27,0.09 0.41,0.14 0.09,0.03 0.19,0.06 0.29,0.09 0.13,0.04 0.26,0.09 0.4,0.13 0.1,0.03 0.2,0.06 0.3,0.09 0.14,0.04 0.28,0.09 0.42,0.13 0.11,0.03 0.22,0.06 0.33,0.1 0.14,0.04 0.29,0.09 0.44,0.13 0.12,0.03 0.24,0.07 0.35,0.1 0.15,0.04 0.3,0.08 0.45,0.13 0.13,0.03 0.25,0.07 0.38,0.1 0.15,0.04 0.3,0.08 0.46,0.12 0.13,0.03 0.27,0.07 0.4,0.1 0.16,0.04 0.32,0.08 0.48,0.12 0.14,0.03 0.28,0.07 0.42,0.1 0.17,0.04 0.33,0.08 0.5,0.12 0.14,0.03 0.29,0.07 0.43,0.1 0.17,0.04 0.34,0.08 0.52,0.12 0.15,0.03 0.3,0.07 0.45,0.1 0.18,0.04 0.36,0.08 0.54,0.11 0.15,0.03 0.31,0.06 0.46,0.09 0.18,0.04 0.37,0.07 0.56,0.11 0.16,0.03 0.32,0.06 0.48,0.09 0.19,0.04 0.38,0.07 0.57,0.1 0.17,0.03 0.33,0.06 0.5,0.09 0.19,0.03 0.39,0.07 0.59,0.1 0.17,0.03 0.34,0.06 0.52,0.08 0.2,0.03 0.41,0.06 0.61,0.09 0.17,0.03 0.35,0.05 0.53,0.08 0.21,0.03 0.42,0.06 0.63,0.09 0.18,0.02 0.36,0.05 0.54,0.07 0.22,0.03 0.44,0.05 0.66,0.08 0.18,0.02 0.36,0.04 0.55,0.06 0.23,0.03 0.45,0.05 0.68,0.07 0.18,0.02 0.37,0.04 0.55,0.06 0.23,0.02 0.47,0.04 0.7,0.06 0.19,0.02 0.37,0.03 0.56,0.05 0.24,0.02 0.49,0.04 0.73,0.06 0.19,0.01 0.37,0.03 0.56,0.04 0.26,0.02 0.51,0.03 0.77,0.05 0.18,0.01 0.37,0.02 0.55,0.03 0.27,0.01 0.55,0.02 0.82,0.04 0.18,0 0.35,0.02 0.53,0.02 0.31,0.01 0.63,0.02 0.95,0.02 0.14,0 0.29,0 0.43,0.01 0.47,0 0.94,0.01 1.41,0.01 3.13,0 6.24,-0.2 9.25,-0.65 0.58,-0.09 1.17,-0.18 1.74,-0.29 0.89,-0.17 1.76,-0.37 2.62,-0.58 0.23,-0.06 0.46,-0.12 0.68,-0.18 2.32,-0.63 4.52,-1.46 6.56,-2.53 0.43,-0.22 0.84,-0.46 1.26,-0.7 1.61,-0.96 3.1,-2.08 4.44,-3.39 0.03,-0.03 0.05,-0.05 0.08,-0.07 4.42,-4.35 7.18,-10.72 7.18,-19.82 z"
       id="path7" />
    <path
       class="cls-1"
       d="m 362.61,572.14 c 0,-15.06 -9.87,-20.25 -21.52,-25.32 -2.11,-0.92 -4.61,-1.84 -7.13,-2.89 -0.54,-0.22 -1.09,-0.45 -1.63,-0.69 -6.34,-2.75 -12.38,-6.36 -12.38,-12.5 0,-1.99 0.66,-3.58 1.79,-4.78 1.88,-2 5.08,-2.94 8.72,-2.94 0.34,0 0.68,0 1.02,0.02 0.09,0 0.17,0.01 0.26,0.02 0.25,0.01 0.5,0.03 0.75,0.05 0.13,0 0.25,0.02 0.37,0.04 0.21,0.02 0.42,0.04 0.64,0.06 0.13,0.02 0.27,0.04 0.4,0.05 0.2,0.03 0.4,0.05 0.6,0.08 0.14,0.02 0.28,0.05 0.42,0.07 0.19,0.03 0.39,0.06 0.58,0.1 0.14,0.03 0.29,0.06 0.43,0.09 0.19,0.04 0.37,0.07 0.56,0.11 0.15,0.03 0.29,0.07 0.43,0.1 0.18,0.04 0.37,0.08 0.55,0.13 0.15,0.04 0.29,0.08 0.44,0.11 0.18,0.05 0.36,0.09 0.53,0.14 0.15,0.04 0.29,0.08 0.44,0.12 0.18,0.05 0.35,0.1 0.52,0.15 0.14,0.04 0.29,0.09 0.43,0.13 0.17,0.05 0.34,0.11 0.52,0.16 0.14,0.05 0.29,0.1 0.43,0.14 0.17,0.06 0.33,0.11 0.5,0.17 0.14,0.05 0.28,0.1 0.43,0.15 0.16,0.06 0.33,0.12 0.49,0.18 0.14,0.05 0.28,0.11 0.41,0.16 0.16,0.06 0.32,0.12 0.48,0.19 0.14,0.05 0.27,0.11 0.41,0.17 0.15,0.06 0.31,0.13 0.46,0.19 0.13,0.06 0.27,0.11 0.4,0.17 0.15,0.06 0.3,0.13 0.45,0.19 0.13,0.06 0.26,0.12 0.39,0.17 0.15,0.07 0.29,0.13 0.44,0.2 0.13,0.06 0.25,0.12 0.38,0.18 0.14,0.07 0.28,0.13 0.42,0.2 0.12,0.06 0.24,0.12 0.37,0.18 0.14,0.07 0.27,0.13 0.41,0.2 0.12,0.06 0.23,0.12 0.35,0.18 0.13,0.07 0.26,0.13 0.39,0.2 0.11,0.06 0.23,0.12 0.34,0.18 0.12,0.07 0.25,0.13 0.37,0.2 0.11,0.06 0.21,0.11 0.32,0.17 0.12,0.07 0.24,0.13 0.36,0.2 0.1,0.06 0.2,0.11 0.31,0.17 0.11,0.06 0.22,0.13 0.33,0.19 0.1,0.06 0.2,0.11 0.29,0.17 0.11,0.06 0.21,0.12 0.31,0.18 0.09,0.05 0.19,0.11 0.28,0.16 0.1,0.06 0.2,0.12 0.29,0.17 0.09,0.05 0.17,0.1 0.26,0.16 0.09,0.06 0.18,0.11 0.27,0.16 0.08,0.05 0.16,0.1 0.24,0.15 0.09,0.05 0.17,0.11 0.25,0.16 0.07,0.05 0.14,0.09 0.21,0.13 0.08,0.05 0.16,0.1 0.23,0.15 0.07,0.04 0.13,0.08 0.19,0.12 0.07,0.05 0.14,0.09 0.21,0.13 0.06,0.04 0.12,0.08 0.17,0.11 0.06,0.04 0.12,0.08 0.18,0.12 0.05,0.03 0.1,0.07 0.15,0.1 0.05,0.04 0.1,0.07 0.15,0.1 0.05,0.03 0.09,0.06 0.13,0.09 0.04,0.03 0.08,0.06 0.12,0.08 0.04,0.03 0.08,0.05 0.11,0.08 0.06,0.04 0.11,0.08 0.15,0.11 0.16,0.11 0.34,0.17 0.53,0.17 h 1.48 l 0.1,-1.31 c 0,0 0,0 0,0 l 0.49,-6.45 0.62,-8.14 c 0.03,-0.41 -0.21,-0.79 -0.59,-0.93 -0.11,-0.04 -0.23,-0.09 -0.36,-0.13 0,0 0,0 0,0 -0.03,-0.01 -0.07,-0.03 -0.11,-0.04 -0.04,-0.01 -0.07,-0.03 -0.11,-0.04 -0.07,-0.02 -0.14,-0.05 -0.21,-0.07 -0.04,-0.01 -0.08,-0.03 -0.12,-0.04 -0.07,-0.03 -0.15,-0.05 -0.22,-0.08 -0.05,-0.02 -0.1,-0.03 -0.15,-0.05 -0.08,-0.03 -0.16,-0.05 -0.24,-0.08 -0.05,-0.02 -0.1,-0.03 -0.16,-0.05 -0.09,-0.03 -0.18,-0.06 -0.28,-0.09 -0.05,-0.02 -0.11,-0.03 -0.16,-0.05 -0.1,-0.03 -0.2,-0.06 -0.3,-0.09 -0.06,-0.02 -0.11,-0.04 -0.17,-0.05 -0.11,-0.03 -0.23,-0.07 -0.34,-0.1 -0.05,-0.02 -0.11,-0.03 -0.16,-0.05 -0.13,-0.04 -0.26,-0.08 -0.4,-0.12 -0.05,-0.01 -0.09,-0.03 -0.14,-0.04 -0.18,-0.05 -0.37,-0.11 -0.57,-0.16 0,0 0,0 0,0 -0.4,-0.11 -0.82,-0.22 -1.26,-0.33 -0.06,-0.02 -0.13,-0.03 -0.2,-0.05 -0.16,-0.04 -0.31,-0.08 -0.48,-0.12 -0.08,-0.02 -0.17,-0.04 -0.25,-0.06 -0.15,-0.04 -0.3,-0.07 -0.46,-0.11 -0.1,-0.02 -0.19,-0.04 -0.29,-0.07 -0.15,-0.03 -0.29,-0.07 -0.44,-0.1 -0.11,-0.02 -0.21,-0.05 -0.32,-0.07 -0.15,-0.03 -0.3,-0.06 -0.45,-0.1 -0.11,-0.02 -0.22,-0.05 -0.33,-0.07 -0.15,-0.03 -0.31,-0.06 -0.47,-0.1 -0.12,-0.02 -0.24,-0.05 -0.35,-0.07 -0.15,-0.03 -0.31,-0.06 -0.47,-0.09 -0.13,-0.02 -0.25,-0.05 -0.38,-0.07 -0.16,-0.03 -0.31,-0.06 -0.47,-0.09 -0.13,-0.02 -0.26,-0.05 -0.4,-0.07 -0.16,-0.03 -0.33,-0.06 -0.49,-0.08 -0.14,-0.02 -0.27,-0.04 -0.41,-0.07 -0.17,-0.03 -0.33,-0.05 -0.5,-0.08 -0.14,-0.02 -0.28,-0.04 -0.43,-0.06 -0.17,-0.02 -0.34,-0.05 -0.51,-0.07 -0.15,-0.02 -0.29,-0.04 -0.44,-0.06 -0.17,-0.02 -0.35,-0.05 -0.53,-0.07 -0.15,-0.02 -0.3,-0.04 -0.45,-0.06 -0.18,-0.02 -0.36,-0.04 -0.55,-0.06 -0.15,-0.02 -0.31,-0.04 -0.46,-0.05 -0.19,-0.02 -0.37,-0.04 -0.56,-0.06 -0.16,-0.02 -0.31,-0.03 -0.47,-0.05 -0.19,-0.02 -0.38,-0.04 -0.58,-0.05 -0.16,-0.01 -0.32,-0.03 -0.48,-0.04 -0.2,-0.02 -0.39,-0.03 -0.59,-0.05 -0.16,-0.01 -0.32,-0.03 -0.49,-0.04 -0.21,-0.01 -0.41,-0.03 -0.62,-0.04 -0.16,-0.01 -0.32,-0.02 -0.48,-0.03 -0.21,-0.01 -0.43,-0.02 -0.65,-0.03 -0.16,0 -0.32,-0.02 -0.49,-0.02 -0.23,0 -0.46,-0.02 -0.68,-0.02 -0.16,0 -0.31,-0.01 -0.47,-0.02 -0.25,0 -0.51,-0.01 -0.76,-0.02 -0.14,0 -0.28,0 -0.42,0 -0.39,0 -0.79,0 -1.2,0 -0.54,0 -1.07,0 -1.6,0.02 -0.2,0 -0.4,0.02 -0.6,0.03 -0.33,0.01 -0.65,0.03 -0.98,0.04 -0.26,0.02 -0.51,0.04 -0.77,0.06 -0.26,0.02 -0.52,0.04 -0.78,0.06 -0.29,0.03 -0.58,0.06 -0.87,0.09 -0.22,0.02 -0.44,0.05 -0.66,0.07 -0.32,0.04 -0.63,0.08 -0.94,0.13 -0.19,0.03 -0.37,0.05 -0.56,0.08 -0.33,0.05 -0.66,0.11 -0.99,0.17 -0.16,0.03 -0.32,0.05 -0.47,0.08 -0.35,0.07 -0.69,0.14 -1.04,0.21 -0.13,0.03 -0.26,0.06 -0.39,0.09 -0.36,0.08 -0.72,0.17 -1.07,0.26 -0.11,0.03 -0.22,0.05 -0.32,0.08 -0.37,0.1 -0.74,0.2 -1.1,0.31 -0.09,0.03 -0.17,0.05 -0.26,0.08 -0.38,0.12 -0.75,0.24 -1.12,0.37 -0.07,0.02 -0.13,0.04 -0.2,0.07 -0.39,0.13 -0.77,0.28 -1.14,0.42 -0.05,0.02 -0.1,0.04 -0.15,0.06 -0.39,0.15 -0.77,0.31 -1.15,0.48 -0.03,0.01 -0.06,0.03 -0.1,0.04 -0.39,0.17 -0.78,0.35 -1.16,0.54 -0.02,0 -0.03,0.02 -0.05,0.02 -0.39,0.2 -0.78,0.4 -1.16,0.61 0,0 0,0 0,0 -5.72,3.17 -9.9,8.05 -11.58,14.73 0,0.02 -0.02,0.04 -0.03,0.07 -0.02,0.08 -0.03,0.17 -0.05,0.25 -0.07,0.31 -0.14,0.63 -0.2,0.96 -0.04,0.2 -0.08,0.39 -0.11,0.59 -0.06,0.33 -0.11,0.68 -0.15,1.02 -0.03,0.2 -0.06,0.39 -0.08,0.59 -0.04,0.37 -0.07,0.76 -0.1,1.14 -0.01,0.18 -0.03,0.35 -0.04,0.52 -0.03,0.56 -0.05,1.14 -0.05,1.72 0,14.81 10.63,20.51 23.04,26.2 8.48,3.92 19.49,7.22 19.49,15.82 0,4.67 -2.23,7.26 -5.29,8.55 -0.31,0.13 -0.62,0.24 -0.94,0.35 -0.64,0.21 -1.31,0.36 -2,0.48 -1.03,0.17 -2.1,0.25 -3.17,0.25 -0.44,0 -0.89,-0.01 -1.33,-0.04 -0.15,0 -0.3,-0.02 -0.44,-0.03 -0.29,-0.02 -0.59,-0.04 -0.88,-0.07 -0.17,-0.02 -0.35,-0.04 -0.52,-0.06 -0.26,-0.03 -0.53,-0.06 -0.79,-0.1 -0.18,-0.03 -0.37,-0.06 -0.55,-0.09 -0.25,-0.04 -0.5,-0.08 -0.75,-0.13 -0.19,-0.04 -0.37,-0.07 -0.56,-0.11 -0.24,-0.05 -0.48,-0.1 -0.72,-0.16 -0.19,-0.04 -0.37,-0.09 -0.56,-0.13 -0.24,-0.06 -0.48,-0.12 -0.72,-0.19 -0.18,-0.05 -0.36,-0.1 -0.54,-0.15 -0.24,-0.07 -0.48,-0.14 -0.72,-0.22 -0.17,-0.05 -0.35,-0.11 -0.52,-0.16 -0.25,-0.08 -0.49,-0.17 -0.74,-0.25 -0.16,-0.06 -0.32,-0.11 -0.47,-0.17 -0.28,-0.1 -0.55,-0.21 -0.82,-0.31 -0.12,-0.05 -0.25,-0.09 -0.37,-0.14 -0.39,-0.16 -0.78,-0.32 -1.16,-0.48 -0.04,-0.02 -0.08,-0.04 -0.12,-0.05 -0.34,-0.15 -0.68,-0.3 -1.02,-0.46 -0.12,-0.06 -0.23,-0.11 -0.35,-0.17 -0.26,-0.12 -0.51,-0.24 -0.76,-0.37 -0.13,-0.06 -0.26,-0.13 -0.39,-0.2 -0.23,-0.12 -0.47,-0.24 -0.7,-0.36 -0.13,-0.07 -0.26,-0.14 -0.39,-0.21 -0.22,-0.12 -0.45,-0.24 -0.67,-0.36 -0.12,-0.07 -0.24,-0.14 -0.37,-0.21 -0.22,-0.13 -0.44,-0.25 -0.66,-0.38 -0.11,-0.06 -0.22,-0.13 -0.33,-0.19 -0.23,-0.14 -0.45,-0.27 -0.67,-0.41 -0.07,-0.04 -0.13,-0.08 -0.2,-0.12 -2.21,-1.36 -4.21,-3.04 -5.99,-4.94 l -3.11,-3.33 c -0.3,-0.32 -0.83,-0.13 -0.87,0.3 l -0.93,11.61 -0.66,8.13 c -0.03,0.39 0.18,0.76 0.54,0.91 0.1,0.04 0.21,0.09 0.33,0.15 0,0 0,0 0,0 0.03,0.01 0.06,0.03 0.09,0.04 0.06,0.03 0.12,0.05 0.18,0.08 0.05,0.02 0.1,0.04 0.15,0.06 0.06,0.03 0.13,0.05 0.2,0.08 0.06,0.02 0.12,0.05 0.18,0.07 0.07,0.03 0.14,0.06 0.21,0.09 0.07,0.03 0.14,0.05 0.2,0.08 0.08,0.03 0.15,0.06 0.24,0.09 0.07,0.03 0.15,0.06 0.23,0.09 0.08,0.03 0.16,0.06 0.25,0.1 0.11,0.04 0.23,0.09 0.35,0.13 0.06,0.02 0.11,0.04 0.17,0.06 0.18,0.07 0.37,0.13 0.57,0.2 0.05,0.02 0.1,0.03 0.14,0.05 0.15,0.05 0.3,0.11 0.46,0.16 0.08,0.03 0.16,0.05 0.24,0.08 0.13,0.05 0.27,0.09 0.41,0.14 0.09,0.03 0.19,0.06 0.29,0.09 0.13,0.04 0.26,0.09 0.4,0.13 0.1,0.03 0.2,0.06 0.3,0.09 0.14,0.04 0.28,0.09 0.42,0.13 0.11,0.03 0.22,0.06 0.33,0.1 0.14,0.04 0.29,0.09 0.44,0.13 0.12,0.03 0.24,0.07 0.35,0.1 0.15,0.04 0.3,0.08 0.45,0.13 0.13,0.03 0.25,0.07 0.38,0.1 0.15,0.04 0.3,0.08 0.46,0.12 0.13,0.03 0.27,0.07 0.4,0.1 0.16,0.04 0.32,0.08 0.48,0.12 0.14,0.03 0.28,0.07 0.42,0.1 0.17,0.04 0.33,0.08 0.5,0.12 0.14,0.03 0.29,0.07 0.43,0.1 0.17,0.04 0.34,0.08 0.52,0.12 0.15,0.03 0.3,0.07 0.45,0.1 0.18,0.04 0.36,0.08 0.54,0.11 0.15,0.03 0.31,0.06 0.46,0.09 0.18,0.04 0.37,0.07 0.56,0.11 0.16,0.03 0.32,0.06 0.48,0.09 0.19,0.04 0.38,0.07 0.57,0.1 0.17,0.03 0.33,0.06 0.5,0.09 0.19,0.03 0.39,0.07 0.59,0.1 0.17,0.03 0.34,0.06 0.52,0.08 0.2,0.03 0.41,0.06 0.61,0.09 0.17,0.03 0.35,0.05 0.53,0.08 0.21,0.03 0.42,0.06 0.63,0.09 0.18,0.02 0.36,0.05 0.54,0.07 0.22,0.03 0.44,0.05 0.66,0.08 0.18,0.02 0.36,0.04 0.55,0.06 0.23,0.03 0.45,0.05 0.68,0.07 0.18,0.02 0.37,0.04 0.55,0.06 0.23,0.02 0.47,0.04 0.7,0.06 0.19,0.02 0.37,0.03 0.56,0.05 0.24,0.02 0.49,0.04 0.73,0.06 0.19,0.01 0.37,0.03 0.56,0.04 0.26,0.02 0.51,0.03 0.77,0.05 0.18,0.01 0.37,0.02 0.55,0.03 0.27,0.01 0.55,0.02 0.82,0.04 0.18,0 0.35,0.02 0.53,0.02 0.31,0.01 0.63,0.02 0.95,0.02 0.14,0 0.29,0 0.43,0.01 0.47,0 0.94,0.01 1.41,0.01 3.13,0 6.24,-0.2 9.25,-0.65 0.58,-0.09 1.17,-0.18 1.74,-0.29 0.89,-0.17 1.76,-0.37 2.62,-0.58 0.23,-0.06 0.46,-0.12 0.68,-0.18 2.32,-0.63 4.52,-1.46 6.56,-2.53 0.43,-0.22 0.84,-0.46 1.26,-0.7 1.61,-0.96 3.1,-2.08 4.44,-3.39 0.03,-0.03 0.05,-0.05 0.08,-0.07 4.42,-4.35 7.18,-10.72 7.18,-19.82 z"
       id="path8" />
  </g>
  <g
     id="g12">
    <path
       class="cls-1"
       d="m 250.04,610.84 -36.3,-37.97 c -0.17,-0.18 -0.26,-0.41 -0.26,-0.66 l 0.06,-31.52 c 0,-0.83 0.98,-1.26 1.59,-0.7 l 28.6,26.17 c 0.15,0.14 0.26,0.33 0.3,0.54 l 7.63,43.33 c 0.16,0.93 -0.98,1.5 -1.63,0.82 z"
       id="path9" />
    <path
       class="cls-1"
       d="m 175.37,545.04 -2.46,27.6 c -0.06,0.63 0.51,1.14 1.13,1.02 l 25.37,-5.02 c 0.34,-0.07 0.61,-0.31 0.72,-0.64 l 9.25,-27.97 c 0.23,-0.68 -0.35,-1.36 -1.06,-1.24 l -32.16,5.39 c -0.43,0.07 -0.75,0.42 -0.79,0.85 z"
       id="path10" />
    <path
       class="cls-1"
       d="m 175.56,538.53 v 0 l 35.99,-5.6 c 0.2,-0.03 0.4,0 0.58,0.09 l 27.49,14.02 c 2.88,1.47 5.08,4 6.14,7.05 l 6.15,17.73 c 0.33,0.96 1.74,0.8 1.85,-0.21 l 3.51,-32.11 c 0.03,-0.3 -0.08,-0.59 -0.29,-0.8 l -27.76,-26.13 c -0.14,-0.13 -0.31,-0.22 -0.5,-0.25 l -32.06,-5.09 c -0.37,-0.06 -0.74,0.11 -0.95,0.42 l -20.14,30.86 z"
       id="path11" />
    <path
       class="cls-1"
       d="m 262.98,492.85 -11.8,10.4 c -0.78,0.69 -1.95,-0.2 -1.48,-1.14 1.9,-3.8 4.68,-9.36 6.84,-13.68 0.21,-0.42 0.08,-0.92 -0.3,-1.19 l -26.07,-18.21 c -0.19,-0.13 -0.43,-0.19 -0.66,-0.17 l -10.73,1.27 c -0.51,0.06 -0.88,0.52 -0.84,1.03 l 1.15,12.23 c 0.1,1.05 -1.33,1.46 -1.8,0.51 l -6.05,-12.25 c -0.18,-0.36 -0.57,-0.57 -0.97,-0.52 l -45.22,5.36 c -0.41,0.05 -0.73,0.35 -0.82,0.75 l -1.83,8.66 c -0.05,0.26 0,0.53 0.15,0.75 l 11.72,16.65 c 0.6,0.85 -0.4,1.9 -1.28,1.36 l -11.71,-7.3 c -0.56,-0.35 -1.3,-0.04 -1.43,0.61 l -9.12,43.07 c -0.04,0.19 -0.02,0.4 0.06,0.58 l 12.27,28.04 c 0.41,0.95 1.83,0.65 1.82,-0.39 l -0.12,-25.72 c -0.02,-3.29 0.93,-6.51 2.71,-9.27 l 22.42,-34.64 c 2.08,-3.21 5.91,-4.81 9.65,-4.04 l 27.67,5.72 c 3.67,0.76 7,2.65 9.54,5.41 l 21.48,23.4 c 0.36,0.39 0.96,0.41 1.34,0.06 l 24.27,-22.25 c 0.45,-0.41 0.4,-1.13 -0.1,-1.48 l -19.59,-13.69 c -0.36,-0.25 -0.85,-0.22 -1.17,0.07 z"
       id="path12" />
  </g>
</svg>
