<svg width="178" height="34" viewBox="0 0 178 34" fill="none" xmlns="http://www.w3.org/2000/svg"><path d="M56.981 10.0901C56.981 9.9279 57.1104 9.79644 57.2701 9.79644H61.7738C61.9335 9.79644 62.0629 9.9279 62.0629 10.0901V21.3265C62.0629 21.4887 62.1924 21.6201 62.3521 21.6201H69.8911C70.0508 21.6201 70.1803 21.7516 70.1803 21.9137V25.3909C70.1803 25.5531 70.0508 25.6845 69.8911 25.6845H57.2701C57.1104 25.6845 56.981 25.5531 56.981 25.3909V10.0901Z" fill="currentColor"></path><path d="M87.4641 19.2877C87.4641 21.4585 86.7819 23.1135 85.4175 24.2527C84.0531 25.392 82.1139 25.9616 79.5997 25.9616C77.0856 25.9616 75.1386 25.392 73.7589 24.2527C72.3945 23.1135 71.7123 21.4585 71.7123 19.2877V10.0901C71.7123 9.9279 71.8418 9.79644 72.0015 9.79644H76.5051C76.6648 9.79644 76.7943 9.9279 76.7943 10.0901V19.2184C76.7943 20.1114 77.0319 20.8273 77.5071 21.3661C77.9824 21.8895 78.6722 22.1513 79.5767 22.1513C80.4812 22.1513 81.1711 21.8818 81.6463 21.343C82.1369 20.8042 82.3822 20.096 82.3822 19.2184V10.0901C82.3822 9.9279 82.5116 9.79644 82.6713 9.79644H87.175C87.3347 9.79644 87.4641 9.9279 87.4641 10.0901V19.2877Z" fill="currentColor"></path><path d="M106.746 25.2249C106.878 25.4198 106.74 25.6845 106.508 25.6845H101.057C100.956 25.6845 100.862 25.6304 100.809 25.542L97.9968 20.7826C97.9821 20.7578 97.9557 20.7426 97.9272 20.7426C97.8986 20.7426 97.8722 20.7578 97.8575 20.7826L95.045 25.542C94.9927 25.6304 94.8986 25.6845 94.7971 25.6845H89.8057C89.5733 25.6845 89.4359 25.4201 89.567 25.2252L94.8025 17.4454C94.8701 17.345 94.8697 17.2126 94.8015 17.1126L90.1242 10.2573C89.9914 10.0625 90.1286 9.79644 90.3619 9.79644H95.7855C95.8873 9.79644 95.9815 9.85076 96.0337 9.93946L98.3174 13.8206C98.3321 13.8456 98.3586 13.8608 98.3872 13.8608C98.4157 13.8608 98.4421 13.8457 98.4568 13.8209L100.763 9.9384C100.816 9.8503 100.91 9.79644 101.011 9.79644H105.975C106.208 9.79644 106.345 10.0627 106.212 10.2574L101.513 17.1354C101.445 17.2355 101.444 17.3682 101.512 17.4687L106.746 25.2249Z" fill="currentColor"></path><path d="M115.618 9.79644C121.152 9.79644 123.919 12.4445 123.919 17.7405C123.919 23.0365 121.152 25.6845 115.618 25.6845H109.054C108.895 25.6845 108.765 25.5531 108.765 25.3909V10.0901C108.765 9.9279 108.895 9.79644 109.054 9.79644H115.618ZM113.847 21.5805C113.847 21.7427 113.977 21.8741 114.136 21.8741H115.526C117.657 21.8741 118.722 20.7272 118.722 18.4333V17.0477C118.722 14.7538 117.657 13.6068 115.526 13.6068H114.136C113.977 13.6068 113.847 13.7383 113.847 13.9004V21.5805Z" fill="currentColor"></path><path d="M141.679 14.6691C141.679 15.639 141.418 16.5165 140.897 17.3017C140.431 18.0033 139.776 18.5389 138.931 18.9086C138.769 18.9793 138.695 19.1747 138.779 19.3322L141.91 25.252C142.014 25.4476 141.874 25.6845 141.655 25.6845H136.616C136.506 25.6845 136.405 25.6209 136.357 25.5204L133.71 20.0522C133.661 19.9518 133.561 19.8881 133.451 19.8881H132.034C131.874 19.8881 131.745 20.0196 131.745 20.1818V25.3909C131.745 25.5531 131.616 25.6845 131.456 25.6845H126.952C126.792 25.6845 126.663 25.5531 126.663 25.3909V10.0901C126.663 9.9279 126.792 9.79644 126.952 9.79644H136.344C137.478 9.79644 138.444 10.0197 139.241 10.4661C140.054 10.8972 140.66 11.4899 141.058 12.2443C141.472 12.9833 141.679 13.7916 141.679 14.6691ZM136.505 14.8769C136.505 14.4613 136.367 14.1149 136.091 13.8377C135.815 13.5606 135.478 13.4221 135.079 13.4221H132.034C131.874 13.4221 131.745 13.5535 131.745 13.7157V16.0613C131.745 16.2234 131.874 16.3549 132.034 16.3549H135.079C135.478 16.3549 135.815 16.2163 136.091 15.9392C136.367 15.6467 136.505 15.2926 136.505 14.8769Z" fill="currentColor"></path><path d="M152.043 9.51933C154.772 9.51933 156.88 10.2198 158.367 11.6208C159.854 13.0218 160.598 15.0617 160.598 17.7405C160.598 20.4193 159.854 22.4592 158.367 23.8602C156.88 25.2611 154.772 25.9616 152.043 25.9616C149.315 25.9616 147.207 25.2688 145.72 23.8833C144.248 22.4823 143.512 20.4347 143.512 17.7405C143.512 15.0463 144.248 13.0064 145.72 11.6208C147.207 10.2198 149.315 9.51933 152.043 9.51933ZM152.043 13.3297C150.955 13.3297 150.127 13.6607 149.56 14.3227C148.993 14.9847 148.709 15.8776 148.709 17.0015V18.4795C148.709 19.6033 148.993 20.4963 149.56 21.1583C150.127 21.8203 150.955 22.1513 152.043 22.1513C153.132 22.1513 153.96 21.8203 154.527 21.1583C155.109 20.4963 155.401 19.6033 155.401 18.4795V17.0015C155.401 15.8776 155.109 14.9847 154.527 14.3227C153.96 13.6607 153.132 13.3297 152.043 13.3297Z" fill="currentColor"></path><path d="M172.21 9.79644C173.192 9.79644 174.065 10.0274 174.832 10.4892C175.598 10.9357 176.196 11.5592 176.626 12.3598C177.055 13.1449 177.269 14.0302 177.269 15.0155V15.3157C177.269 16.301 177.055 17.1939 176.626 17.9945C176.196 18.7951 175.598 19.4263 174.832 19.8881C174.065 20.3346 173.192 20.5578 172.21 20.5578H168.705C168.546 20.5578 168.416 20.6893 168.416 20.8515V25.3909C168.416 25.5531 168.287 25.6845 168.127 25.6845H163.623C163.464 25.6845 163.334 25.5531 163.334 25.3909V10.0901C163.334 9.9279 163.464 9.79644 163.623 9.79644H172.21ZM168.416 16.5462C168.416 16.7084 168.546 16.8398 168.705 16.8398H170.509C171.045 16.8398 171.444 16.7013 171.705 16.4242C171.98 16.1471 172.118 15.7699 172.118 15.2926V15.1079C172.118 14.6152 171.98 14.238 171.705 13.9763C171.444 13.6992 171.045 13.5606 170.509 13.5606H168.705C168.546 13.5606 168.416 13.6921 168.416 13.8542V16.5462Z" fill="currentColor"></path><path fill-rule="evenodd" clip-rule="evenodd" d="M37.0492 20.6847L23.8567 0.967783C23.7654 0.831376 23.5619 0.831377 23.4706 0.967784L10.2781 20.6847L23.5003 33.6836C23.5905 33.7723 23.7368 33.7723 23.827 33.6836L37.0492 20.6847ZM27.5554 21.8514C27.6322 21.7754 27.6445 21.6569 27.5849 21.5672L23.8571 15.9555C23.7659 15.8183 23.5614 15.8183 23.4702 15.9555L19.7424 21.5672C19.6828 21.6569 19.6951 21.7754 19.7719 21.8514L23.4997 25.5427C23.5901 25.6322 23.7372 25.6322 23.8276 25.5427L27.5554 21.8514Z" fill="#1BB2FF"></path><path d="M37.0492 20.6847L42.6883 33.1899C42.7826 33.399 43.0967 33.3554 43.1284 33.1288L46.5939 8.35629C46.6268 8.12161 46.318 8.00044 46.1774 8.19283L37.0492 20.6847Z" fill="#1BB2FF"></path><path d="M10.2781 20.6847L4.63901 33.1899C4.54471 33.399 4.23064 33.3554 4.19894 33.1288L0.733384 8.35629C0.700553 8.12161 1.00929 8.00044 1.14988 8.19283L10.2781 20.6847Z" fill="#1BB2FF"></path></svg>
