<?xml version="1.0" encoding="utf-8"?>
<!-- Generator: Adobe Illustrator 27.8.1, SVG Export Plug-In . SVG Version: 6.00 Build 0)  -->
<svg version="1.1" id="Laag_1" xmlns="http://www.w3.org/2000/svg" xmlns:xlink="http://www.w3.org/1999/xlink" x="0px" y="0px"
	 viewBox="0 0 573 516" style="enable-background:new 0 0 573 516;" xml:space="preserve">
<style type="text/css">
	.st0{fill:#FFFFFF;}
</style>
<g>
	<path class="st0" d="M180,516c-0.8-0.5-1.5-1.2-2.4-1.4c-17.8-4.4-29.8-15.9-37.1-32.2c-10.2-22.9-19.5-46.1-29.2-69.2
		c-0.3-0.6-0.4-1.3-0.5-1.9c1.4,0.1,3.1-0.1,4.2,0.5c2.1,1.3,3.9,3,5.8,4.6c18.7,15.3,37.4,30.7,56.1,46c17.2,14,34.4,28,51.6,42
		c-10.9,3.9-21.7,7.8-32.6,11.6C190.7,516,185.3,516,180,516z"/>
	<path class="st0" d="M0,130c1-2.7,2-5.3,3.1-8c1.7,0.9,3.6,1.6,5.1,2.8c8.4,6.7,16.7,13.5,25,20.3c13.4,11,26.8,22,40.3,32.9
		c12.1,9.7,24.3,19.3,36.5,29c-0.7,2.4-1.8,4.7-1.9,7.1c-0.1,3-0.3,7,1.4,8.7c8.5,8.7,13.8,19.3,19,29.9c-1.6-0.5-3.6-0.7-4.9-1.7
		c-10.5-8.3-20.9-16.8-31.3-25.3c-13.2-10.8-26.4-21.6-39.6-32.4c-11.9-9.7-23.9-19.5-36-29c-4-3.1-8.5-5.6-12.7-8.4
		c-1.4-4-2.7-8-4.1-12C0,139.3,0,134.7,0,130z"/>
	<path class="st0" d="M502,67c0-8.1,0-16.2,0-25.5c5.2,2.2,9.8,4,14.1,6.1c9.8,4.8,19.7,9.5,29.3,14.7c12.6,6.8,21.9,16.6,25.6,30.9
		c0.2,0.7,1.3,1.2,1.9,1.8c0,7.3,0,14.7,0,22c-0.7,0-1.3,0-2,0c-1.1-0.6-2.4-1.1-3.3-1.9c-6.3-5-12.6-10.1-18.9-15.2
		c-12.7-10.2-25.5-20.3-38-30.8C507.9,66.6,505.5,65.4,502,67z"/>
	<path class="st0" d="M388,0c6.3,1,12.6,1.9,18.9,3c18,3.2,35.1,20.1,38,38.2c1.2,7.1,1.4,14.4,2,21.7c0.1,0.7-0.6,1.5-0.9,2.2
		c-3.7-2.7-7.5-5.2-11.1-8.1c-11.3-9-22.3-18.2-33.7-27.1c-11.6-9.1-23.3-17.8-35-26.8c-0.6-0.4-0.8-1.3-1.2-2c3.7-0.3,7.3-0.7,11-1
		C380,0,384,0,388,0z"/>
	<path class="st0" d="M245,2c2-0.7,4-1.3,6-2c4.3,0,8.7,0,13,0c4.7,1.5,9.5,2.6,14,4.6c15.6,7,24.7,19.9,30.9,35.2
		c2.7,6.7,5.4,13.5,8.2,20.2c-3.4-2.2-6.9-4.2-10.1-6.7c-13.8-11.1-27.6-22.3-41.2-33.5C258.6,14,251.9,7.9,245,2z"/>
	<path class="st0" d="M136.9,44.9c6.7-2.7,13.3-5.3,20-8c10.4,8.4,20.9,16.8,31.3,25.2c14.7,11.9,29.4,23.7,44,35.6
		c15.4,12.6,30.7,25.3,46,37.8c17.1,13.9,34.2,27.7,51.3,41.5c16.2,13.1,32.4,26.3,48.6,39.4c1.6,1.3,3.8,1.7,5.8,2.5
		c6,14,11.9,28,17.9,42c-1.8-0.7-3.9-0.9-5.3-2.1c-8-6.4-15.9-13-23.8-19.5c-17.2-14-34.3-28.1-51.8-41.8c-4.3-3.3-7.6-8.6-13.9-8.7
		c-7.7-16.3-20.2-27-37.1-33c-0.6-1.4-0.9-3.3-2-4.2c-7.2-6-14.7-11.8-22-17.7c-14.8-11.9-29.6-23.9-44.4-35.9
		c-14-11.4-27.9-22.8-41.9-34.2C152.1,57.6,144.6,51.2,136.9,44.9z"/>
	<path class="st0" d="M171.9,30.9c8.7-3.6,17.4-7.2,26.1-10.8c5.2,4.6,10.3,9.3,15.6,13.7c12.7,10.3,25.6,20.4,38.3,30.7
		c13.9,11.3,27.5,22.8,41.4,34.1c15.5,12.7,31,25.3,46.6,37.8c4.2,3.4,8.7,6.4,13.1,9.6c7,16.3,13.9,32.7,20.9,49
		c-2.4-1.3-5.1-2.2-7.2-3.9c-6.4-5-12.5-10.4-18.7-15.5c-13.6-11.1-27.3-22-40.9-33.1c-13.1-10.6-26.1-21.4-39.2-32
		c-15.2-12.3-30.4-24.5-45.6-36.7c-13.3-10.7-26.6-21.3-39.7-32.1C178.7,38.4,175.4,34.5,171.9,30.9z"/>
	<path class="st0" d="M435.1,411.1c-3.9,6.2-9,11-15.8,14c-1.4-1.4-2.7-2.9-4.2-4.1c-6.1-5-12.3-10-18.5-15
		c-13.8-11.2-27.5-22.3-41.3-33.5c-10.8-8.8-21.6-17.5-32.4-26.3c-15.4-12.5-30.9-25-46.2-37.6c-4.8-4-9.3-8.3-13.9-12.5
		c5.4-3.8,10.8-7.5,16.1-11.3c7.5,5.6,15.2,11.1,22.5,16.9c13.4,10.8,26.6,21.8,40,32.7c11.4,9.3,23,18.4,34.5,27.7
		c13.7,11,27.3,22,40.9,33.2C422.9,400.5,428.9,405.9,435.1,411.1z"/>
	<path class="st0" d="M410.1,430.1c-7.4,3-14.7,5.9-22.1,8.9c-0.3-0.7-0.4-1.8-0.9-2.2c-12.8-10.5-25.6-21-38.4-31.4
		c-15.3-12.4-30.6-24.8-45.9-37.1c-12.1-9.8-24.2-19.6-36.4-29.2c-1.1-0.8-3-0.6-4.5-0.8c-3.9-8-8.1-16-11.7-24.2
		c-4.4-9.9-4.8-7.3,4.9-13c1.2,1.7,2.2,3.8,3.8,5c14.7,12,29.6,23.9,44.4,35.9c14.8,12,29.6,23.9,44.4,36
		c13.9,11.3,27.7,22.6,41.5,34C396.1,417.9,403,424.1,410.1,430.1z"/>
	<path class="st0" d="M84.8,349.1c-4.1-9.7-8.2-19.4-12.3-29.1c1.6,0.6,3.5,0.9,4.8,2c17.7,14.2,35.3,28.5,52.9,42.8
		c17.3,14,34.6,27.9,51.8,41.8c16.7,13.6,33.3,27.3,50.1,40.9c13.6,11.1,27.3,22.1,40.9,33.1c1.5,1.2,2.6,2.8,3.9,4.2
		c-5.3,2.1-10.6,4.3-15.9,6.4c-1.4-1.6-2.6-3.5-4.3-4.8c-14.6-12-29.2-23.9-43.9-35.8c-18.5-15-37.2-29.8-55.7-44.9
		c-20.4-16.6-40.7-33.4-61.2-49.9C92.7,353.1,88.6,351.3,84.8,349.1z"/>
	<path class="st0" d="M277,484.8c-1.3-1.4-2.4-3-3.9-4.2c-13.6-11.1-27.3-22.1-40.9-33.1c-16.7-13.6-33.3-27.3-50.1-40.9
		c-17.2-14-34.5-27.9-51.8-41.8c-17.6-14.3-35.2-28.6-52.9-42.8c-1.3-1-3.2-1.3-4.8-2c-3.5-8.3-7-16.7-10.5-25
		c1.5,0.7,3.2,1.1,4.4,2c10.1,8,20.2,16,30.2,24.1c24.1,19.6,48,39.4,72.2,58.9c3,2.4,6.7,4,10,5.9c0.6,1.7,1.2,3.4,1.8,5.2
		c2,6,3.8,7.1,9.9,6c1.1-0.2,2.3-0.3,3.5-0.5c1,1.4,1.7,3.2,3,4.2c13.1,10.7,26.2,21.2,39.3,31.9c15.3,12.4,30.6,24.8,45.8,37.3
		c3.2,2.7,6,5.9,9,8.9C286.3,480.9,281.7,482.9,277,484.8z"/>
	<path class="st0" d="M428,323c5.6,14.3,11.3,28.7,16.9,43c-1.6-0.8-3.4-1.5-4.7-2.6c-12.9-10.4-25.7-20.9-38.5-31.3
		c-13.7-11.2-27.5-22.3-41.2-33.5c-11.4-9.3-22.7-18.7-34.2-27.9c-6.3-5.1-12.8-9.9-19.2-14.8c2.6-7,5.2-14.1,7.7-21.1
		c1.4,0.5,3,0.6,4,1.5c5.2,4,10.4,8.2,15.5,12.4c13.6,11.1,27.1,22.1,40.7,33.2c13.6,11.1,27.1,22.2,40.8,33.1
		C419.5,318.1,423.9,320.4,428,323z"/>
	<path class="st0" d="M353,146c-4.4-3.2-8.9-6.2-13.1-9.6c-15.6-12.5-31.1-25.1-46.6-37.8c-13.8-11.3-27.5-22.8-41.4-34.1
		c-12.7-10.3-25.6-20.4-38.3-30.7c-5.4-4.4-10.4-9.1-15.6-13.7c7-2.7,13.9-5.4,20.9-8.1C235.6,25.4,252.3,39,269,52.5
		c18.4,14.9,36.6,30,55.1,44.8c3.6,2.9,7.9,5.1,11.9,7.6C341.7,118.7,347.3,132.3,353,146z"/>
	<path class="st0" d="M171.9,30.9c3.5,3.6,6.7,7.6,10.6,10.8c13.1,10.9,26.5,21.4,39.7,32.1c15.2,12.2,30.4,24.5,45.6,36.7
		c13.1,10.6,26.1,21.4,39.2,32c13.6,11.1,27.3,22,40.9,33.1c6.3,5.1,12.4,10.5,18.7,15.5c2.1,1.7,4.8,2.6,7.2,3.9
		c3.4,8,6.7,16,10.1,24c-1.9-0.8-4.2-1.3-5.8-2.5c-16.3-13-32.4-26.2-48.6-39.4c-17.1-13.9-34.3-27.6-51.3-41.5
		c-15.4-12.5-30.7-25.3-46-37.8c-14.6-11.9-29.3-23.8-44-35.6c-10.4-8.4-20.9-16.8-31.3-25.2C161.9,34.9,166.9,32.9,171.9,30.9z"/>
	<path class="st0" d="M365,1c0.4,0.7,0.7,1.5,1.2,2c11.6,8.9,23.4,17.7,35,26.8c11.3,8.9,22.4,18.1,33.7,27.1
		c3.6,2.9,7.4,5.4,11.1,8.1c0.3,13.7,0.6,27.3,0.9,41c-6.4-4.9-12.9-9.7-19.2-14.8c-16.2-13.1-32.3-26.4-48.6-39.4
		c-1.2-0.9-3.4-0.5-5.2-0.8c-2.6-5.6-5.4-11.2-7.8-16.9c-4.3-10-8.4-20.2-12.6-30.3c-0.2-0.6-0.2-1.2-0.5-2.8C357.2,1,361.1,1,365,1
		z"/>
	<path class="st0" d="M84.8,349.1c3.8,2.2,7.9,4,11.2,6.7c20.5,16.5,40.8,33.3,61.2,49.9c18.5,15,37.2,29.9,55.7,44.9
		c14.7,11.9,29.3,23.8,43.9,35.8c1.6,1.3,2.9,3.2,4.3,4.8c-5.2,2-10.3,4-15.5,6c-3.8-3.2-7.6-6.4-11.4-9.5
		c-18.6-15-37.2-29.8-55.7-44.8c-23.8-19.3-47.4-38.8-71.2-58c-3-2.4-6.7-4-10-5.9C93.1,369,88.9,359,84.8,349.1z"/>
	<path class="st0" d="M502,67c3.5-1.6,5.8-0.4,8.8,2c12.5,10.5,25.3,20.6,38,30.8c6.3,5.1,12.5,10.2,18.9,15.2
		c1,0.8,2.2,1.3,3.3,1.9c-3,8.2-5.8,16.5-8.9,24.7c-2.1,5.5-4.7,10.9-7.1,16.3c-1.4-1.6-2.7-3.4-4.3-4.7
		c-12.5-10.2-24.9-20.5-37.6-30.5c-3.2-2.5-7.3-3.9-11-5.8C502,100.3,502,83.7,502,67z"/>
	<path class="st0" d="M329.1,463.3c-8,3.3-16,6.6-24,9.9c-4.5-4.1-9-8.3-13.7-12.2c-13.3-11-26.6-21.9-40-32.7
		c-13.1-10.6-26.3-21.1-39.4-31.8c-1.3-1.1-2-2.9-3-4.4c8.6-3.1,17.3-6.2,25.9-9.3c0.5,1,0.8,2.2,1.6,2.9
		c7.1,5.9,14.2,11.8,21.4,17.7c22.2,18,44.5,35.9,66.6,53.9C326.5,458.8,327.6,461.2,329.1,463.3z"/>
	<path class="st0" d="M336,105c-4-2.5-8.2-4.7-11.9-7.6c-18.4-14.8-36.7-29.9-55.1-44.8c-16.7-13.6-33.4-27.1-50.1-40.6
		c8.7-3.3,17.4-6.6,26.1-9.9c6.9,5.9,13.6,12,20.7,17.8c13.7,11.3,27.4,22.5,41.2,33.5c3.1,2.5,6.7,4.5,10.1,6.7
		C323.3,75,329.6,90,336,105z"/>
	<path class="st0" d="M435.1,411.1c-6.1-5.3-12.2-10.6-18.5-15.8c-13.6-11.1-27.2-22.1-40.9-33.2c-11.5-9.3-23-18.4-34.5-27.7
		c-13.4-10.9-26.6-21.9-40-32.7c-7.3-5.9-15-11.3-22.5-16.9c3.7-3,7.3-6,11-9c1.4,0.5,3,0.8,4.1,1.7c10.5,8.3,21,16.7,31.4,25.2
		c15.4,12.6,30.7,25.3,46.1,37.8c17,13.8,34,27.5,51,41.2c6.8,5.5,13.8,10.8,20.7,16.2C440.4,402.4,437.8,406.8,435.1,411.1z"/>
	<path class="st0" d="M97.2,379c3.4,1.9,7.1,3.5,10,5.9c23.8,19.2,47.5,38.7,71.2,58c18.5,15,37.1,29.9,55.7,44.8
		c3.9,3.1,7.6,6.3,11.4,9.5c-5.7,2.4-11.3,4.7-17,7.1c-17.2-14-34.4-28-51.6-42c-18.7-15.3-37.4-30.6-56.1-46
		c-1.9-1.6-3.7-3.4-5.8-4.6c-1.1-0.7-2.8-0.4-4.2-0.5C106.3,400.5,101.7,389.8,97.2,379z"/>
	<path class="st0" d="M373.9,51c1.8,0.2,4-0.2,5.2,0.8c16.3,13,32.4,26.3,48.6,39.4c6.3,5.1,12.8,9.9,19.2,14.8
		c0,13.3,0,26.7-0.1,40c-2.5-1.4-5.3-2.5-7.6-4.3c-11.2-9-22.3-18.3-33.5-27.3c-2-1.6-4.6-2.3-6.9-3.4c-3.2-7.2-6.6-14.4-9.7-21.7
		c-4.7-11-9.3-22-13.9-33C374.6,54.6,374.4,52.8,373.9,51z"/>
	<path class="st0" d="M307.1,189c6.4,0.1,9.7,5.3,13.9,8.7c17.4,13.7,34.6,27.8,51.8,41.8c8,6.5,15.8,13.1,23.8,19.5
		c1.4,1.1,3.5,1.4,5.3,2.1c5.7,13.3,11.3,26.7,17,40c-2.4-1.3-5.1-2.3-7.2-4c-9.7-7.8-19.2-15.7-28.9-23.6
		c-18.9-15.3-37.8-30.7-56.8-45.9c-3.3-2.6-7.2-4.4-10.8-6.6C312.5,210.3,309.8,199.7,307.1,189z"/>
	<path class="st0" d="M307,256c6.4,4.9,12.9,9.7,19.2,14.8c11.5,9.2,22.8,18.6,34.2,27.9c13.7,11.2,27.5,22.3,41.2,33.5
		c12.8,10.4,25.6,20.9,38.5,31.3c1.4,1.1,3.2,1.7,4.7,2.6c0.4,6.3,0.7,12.7,1.1,19c-1.7-0.9-3.7-1.5-5.2-2.7
		c-10.2-8.3-20.1-16.7-30.3-24.9c-14.8-12-29.7-23.8-44.5-35.8c-17.6-14.3-35.2-28.6-52.8-43c-4.7-3.9-9.1-8.1-13.6-12.2
		C302.1,262.9,304.6,259.4,307,256z"/>
	<path class="st0" d="M261.9,338.3c1.5,0.2,3.5,0,4.5,0.8c12.2,9.6,24.3,19.4,36.4,29.2c15.3,12.4,30.6,24.7,45.9,37.1
		c12.8,10.4,25.6,20.9,38.4,31.4c0.5,0.5,0.6,1.5,0.9,2.2c-6.3,2.7-12.7,5.3-19,8c-2.8-2.9-5.4-6.1-8.5-8.6
		c-13.1-10.7-26.3-21.2-39.4-31.8c-17.1-13.8-34.2-27.7-51.3-41.6c3.1-3.6,2.4-7.1,0.2-10.9C267.1,348.9,264.6,343.5,261.9,338.3z"
		/>
	<path class="st0" d="M329.1,463.3c-1.5-2-2.6-4.5-4.5-6c-22.2-18-44.4-35.9-66.6-53.9c-7.2-5.8-14.3-11.7-21.4-17.7
		c-0.8-0.7-1.1-1.9-1.6-2.9c7-3.3,14-6.6,21-9.9c0.7,1.4,1.1,3.1,2.1,4.1c2.3,2.2,4.8,4,7.3,6c13.7,11.1,27.4,22.3,41.1,33.4
		c14.2,11.5,28.5,23,42.7,34.6c0.9,0.7,1.2,2.2,1.8,3.4C343.8,457.3,336.4,460.3,329.1,463.3z"/>
	<path class="st0" d="M502,117c3.7,1.9,7.8,3.3,11,5.8c12.7,9.9,25.2,20.2,37.6,30.5c1.6,1.3,2.9,3.2,4.3,4.7c-5.3,13-10.7,26-16,39
		c-8.6-7.1-17.1-14.3-25.9-21.2c-3.4-2.7-7.4-4.5-11.1-6.8C502.1,151.7,502.1,134.4,502,117z"/>
	<path class="st0" d="M299.7,266.3c4.5,4.1,8.9,8.3,13.6,12.2c17.5,14.4,35.1,28.7,52.8,43c14.8,12,29.7,23.8,44.5,35.8
		c10.2,8.2,20.2,16.7,30.3,24.9c1.5,1.2,3.4,1.8,5.2,2.7c-1,4.3-1.9,8.7-2.9,13c-6.9-5.4-13.9-10.7-20.7-16.2
		c-17-13.7-34.1-27.4-51-41.2c-15.4-12.6-30.7-25.3-46.1-37.8c-10.4-8.5-20.9-16.9-31.4-25.2c-1.1-0.9-2.7-1.1-4.1-1.7
		C293.1,272.7,296.4,269.5,299.7,266.3z"/>
	<path class="st0" d="M351.1,454.3c-0.6-1.1-0.9-2.6-1.8-3.4c-14.2-11.6-28.5-23.1-42.7-34.6c-13.7-11.1-27.4-22.3-41.1-33.4
		c-2.4-2-5-3.8-7.3-6c-1-1-1.4-2.7-2.1-4.1c4.6-2.7,9.2-5.3,13.8-8c17.1,13.9,34.2,27.8,51.3,41.6c13.1,10.6,26.4,21.1,39.4,31.8
		c3.1,2.5,5.7,5.7,8.5,8.6C363,449.4,357.1,451.8,351.1,454.3z"/>
	<path class="st0" d="M398.9,111c2.3,1.1,5,1.8,6.9,3.4c11.2,9,22.3,18.3,33.5,27.3c2.2,1.8,5,2.9,7.6,4.3c0,22.5,0.1,44.9,0,67.4
		c0,2.7-0.8,5.4-1.3,8.1c-0.4,0-0.9,0.1-1.3,0.1c-3.4-8.2-6.8-16.3-10.2-24.5c-11.4-27.4-22.8-54.8-34.1-82.3
		C399.5,113.6,399.2,112.3,398.9,111z"/>
	<path class="st0" d="M410.1,430.1c-7-6-13.9-12.2-21-18.1c-13.8-11.4-27.6-22.7-41.5-34c-14.8-12-29.6-24-44.4-36
		c-14.8-12-29.7-23.9-44.4-35.9c-1.6-1.3-2.5-3.3-3.8-5c2.6-1.6,5.1-3.3,7.7-4.9c4.6,4.2,9.1,8.6,13.9,12.5
		c15.3,12.6,30.8,25.1,46.2,37.6c10.8,8.8,21.6,17.5,32.4,26.3c13.8,11.1,27.5,22.3,41.3,33.5c6.2,5,12.4,10,18.5,15
		c1.5,1.2,2.8,2.7,4.2,4.1C416.2,426.8,413.1,428.4,410.1,430.1z"/>
	<path class="st0" d="M209,392.1c1,1.5,1.7,3.3,3,4.4c13.1,10.7,26.3,21.2,39.4,31.8c13.4,10.8,26.7,21.7,40,32.7
		c4.7,3.9,9.1,8.1,13.7,12.2c-4.7,1.9-9.4,3.9-14.1,5.8c-3-3-5.7-6.2-9-8.9c-15.2-12.5-30.5-24.9-45.8-37.3
		c-13.1-10.6-26.3-21.2-39.3-31.9c-1.3-1.1-2-2.8-3-4.2C198.9,395.1,204,393.6,209,392.1z"/>
	<path class="st0" d="M315.2,221c3.6,2.2,7.5,4,10.8,6.6c19,15.2,37.9,30.5,56.8,45.9c9.6,7.8,19.2,15.8,28.9,23.6
		c2.1,1.7,4.8,2.7,7.2,4c3,7.3,6.1,14.7,9.1,22c-4.1-2.6-8.5-4.9-12.2-7.9C402,304.2,388.5,293,375,282
		c-13.6-11.1-27.1-22.1-40.7-33.2c-5.1-4.2-10.2-8.4-15.5-12.4c-1.1-0.8-2.7-1-4-1.5C314.9,230.3,315,225.6,315.2,221z"/>
	<path class="st0" d="M502.1,169c3.7,2.2,7.7,4.1,11.1,6.8c8.8,6.9,17.3,14.1,25.9,21.2c-3.3,8-6.7,16-10,24
		c-4.9-4.1-9.7-8.3-14.8-12.2c-3.8-2.9-8.1-5.2-12.1-7.8C502.1,190.4,502.1,179.7,502.1,169z"/>
	<path class="st0" d="M502.1,201c4,2.6,8.3,4.9,12.1,7.8c5.1,3.8,9.9,8.1,14.8,12.2c-3.4,8.3-6.8,16.7-10.1,25
		c-1.3-0.9-2.6-1.8-4-2.6c-4.2-2.5-8.5-4.9-12.7-7.4C502.2,224.4,502.2,212.7,502.1,201z"/>
	<path class="st0" d="M502.2,236c4.2,2.5,8.5,4.9,12.7,7.4c1.4,0.8,2.7,1.7,4,2.6c-4.9,11.7-9.7,23.5-14.6,35.2
		c-0.7-0.1-1.4-0.3-2.1-0.4C502.2,265.9,502.2,251,502.2,236z"/>
	<path class="st0" d="M49.6,265.1c-4.9-11.3-9.8-22.6-14.7-34c-1.4-3.3-2.6-6.8-3.8-10.2c2.3,1.2,4.9,2,6.9,3.6
		c17.1,13.9,34,27.9,51.1,41.9c17.3,14.1,34.7,28.2,52.1,42.2c4,3.2,8.7,5.6,13.1,8.4c4.3,10.5,8.6,21,12.7,31.6
		c1.3,3.4,2.2,6.9,3.2,10.4c-1.9-0.9-4-1.6-5.6-2.9c-11.3-9.1-22.5-18.4-33.8-27.6c-22.6-18.3-45.1-36.7-67.8-54.8
		C58.9,270.4,54.1,268,49.6,265.1z"/>
	<path class="st0" d="M154.3,316.9c-4.4-2.8-9-5.2-13.1-8.4c-17.5-13.9-34.8-28-52.1-42.2c-17.1-13.9-34-28-51.1-41.9
		c-2-1.6-4.6-2.4-6.9-3.6c-5.6-13.3-11.2-26.7-16.8-40c2,1,4.4,1.6,6.1,2.9c13,10.5,25.9,21.1,38.9,31.6c17,13.8,34,27.4,51,41.2
		c7.7,6.2,15.3,12.6,23.1,18.8c1.2,0.9,3.2,0.8,4.8,1.1C143.5,290.1,148.9,303.5,154.3,316.9z"/>
	<path class="st0" d="M49.6,265.1c4.5,2.8,9.3,5.2,13.4,8.5c22.7,18.2,45.2,36.5,67.8,54.8c11.3,9.2,22.5,18.4,33.8,27.6
		c1.6,1.3,3.7,1.9,5.6,2.9c2.9,9,5.7,18,8.6,27.1c-3.4-1.9-7-3.5-10-5.9c-24.1-19.6-48.1-39.3-72.2-58.9C86.6,313,76.6,305,66.4,297
		c-1.2-1-2.9-1.4-4.4-2C57.9,285,53.7,275.1,49.6,265.1z"/>
	<path class="st0" d="M138.2,276.6c-1.6-0.3-3.7-0.2-4.8-1.1c-7.8-6.1-15.4-12.5-23.1-18.8c-17-13.7-34-27.4-51-41.2
		c-13-10.5-25.9-21.2-38.9-31.6c-1.7-1.4-4-2-6.1-2.9c-3.4-8.3-6.8-16.7-10.1-25c4.3,2.8,8.7,5.3,12.7,8.4c12.1,9.5,24,19.3,36,29
		c13.2,10.8,26.4,21.6,39.6,32.4c10.4,8.5,20.8,16.9,31.3,25.3c1.3,1,3.2,1.2,4.9,1.7C131.8,260.8,135,268.7,138.2,276.6z"/>
	<path class="st0" d="M136.9,44.9c7.6,6.3,15.2,12.7,22.8,19c13.9,11.4,27.9,22.9,41.9,34.2c14.8,12,29.6,23.9,44.4,35.9
		c7.3,5.9,14.8,11.7,22,17.7c1.1,0.9,1.4,2.8,2,4.2c-12.2-3-24.4-5.2-37-3.1c-1-1.6-1.6-3.6-2.9-4.7c-16.7-13.7-33.6-27.3-50.4-41
		c-15-12.2-30.1-24.2-45.1-36.5c-6.6-5.4-13-11.1-19.5-16.7C122.3,51,129.6,47.9,136.9,44.9z"/>
	<path class="st0" d="M115,54c6.5,5.6,12.9,11.3,19.5,16.7c15,12.2,30.1,24.3,45.1,36.5c16.8,13.6,33.7,27.2,50.4,41
		c1.4,1.1,2,3.1,2.9,4.7c-2.6,0.3-5.2,0.5-7.7,0.9c-5.8,1-11.5,2.1-17.2,3.1c-1.2-1.5-2-3.4-3.5-4.6c-20.2-16.5-40.6-32.8-60.9-49.2
		c-16.7-13.5-33.4-27-50.1-40.5C100.7,59.7,107.8,56.9,115,54z"/>
	<path class="st0" d="M7.3,111c3.4-7,7.9-13,14.7-17c4.5,3.9,8.9,7.9,13.5,11.6c13.2,10.8,26.6,21.4,39.8,32.1
		c13.8,11.1,27.6,22.2,41.2,33.5c5.7,4.7,11,9.8,16.5,14.7c-5.2,3.7-10.4,7.4-15.5,11.1c-1.2-0.6-2.5-1-3.5-1.8
		c-13.7-11.2-27.3-22.6-41-33.8c-17.3-14.1-34.7-28.3-52.2-42.2C16.7,116.2,11.8,113.8,7.3,111z"/>
	<path class="st0" d="M36.7,87.3c1.7-1.1,3.2-2.5,5-3.3c4.3-1.9,8.8-3.5,13.2-5.2c3.8,3.6,7.5,7.5,11.5,10.8
		c14.8,12.1,29.9,24.1,44.8,36.1c15.6,12.6,31.2,25.1,46.6,37.8c3.1,2.6,5.5,6.2,8.2,9.3c-6.2,2.4-12.5,4.8-18.7,7.2
		c-3.1-3.1-6.1-6.4-9.4-9.1c-13-10.7-26.2-21.3-39.3-31.9c-13.6-11-27.3-22-40.7-33.2C50.7,99.9,43.8,93.5,36.7,87.3z"/>
	<path class="st0" d="M67.8,73.5c5.4-2.2,10.8-4.4,16.2-6.7c2.4,2.6,4.5,5.5,7.2,7.8c16.6,13.7,33.3,27.3,50,40.9
		c16.5,13.3,33.1,26.5,49.5,39.9c1.8,1.5,2.9,3.9,4.3,5.8c-5.3,2.1-10.6,4.2-15.9,6.3c-0.9-1.6-1.5-3.6-2.8-4.7
		c-14.8-12.2-29.7-24.4-44.6-36.5c-15.2-12.3-30.5-24.5-45.6-36.8C79.8,84.3,73.9,78.8,67.8,73.5z"/>
	<path class="st0" d="M36.7,87.3c7,6.2,13.9,12.6,21.1,18.6c13.5,11.2,27.1,22.2,40.7,33.2c13.1,10.6,26.2,21.2,39.3,31.9
		c3.4,2.8,6.3,6.1,9.4,9.1c-4.8,2-9.5,4-14.3,6c-5.5-4.9-10.8-10-16.5-14.7c-13.7-11.3-27.5-22.4-41.2-33.5
		c-13.3-10.7-26.6-21.4-39.8-32.1c-4.6-3.7-9-7.8-13.5-11.6C26.9,91.8,31.8,89.6,36.7,87.3z"/>
	<path class="st0" d="M67.8,73.5c6.1,5.3,12,10.8,18.3,15.9c15.1,12.4,30.4,24.5,45.6,36.8c14.9,12.1,29.8,24.2,44.6,36.5
		c1.3,1.1,1.9,3.1,2.8,4.7c-4.4,1.8-8.8,3.6-13.2,5.5c-2.7-3.1-5-6.7-8.2-9.3c-15.4-12.8-31-25.3-46.6-37.8
		c-14.9-12-29.9-24-44.8-36.1c-4.1-3.3-7.7-7.2-11.5-10.8C59.2,77.1,63.5,75.3,67.8,73.5z"/>
	<path class="st0" d="M7.3,111c4.5,2.8,9.4,5.2,13.6,8.5c17.5,13.9,34.8,28,52.2,42.2c13.7,11.2,27.3,22.6,41,33.8
		c1,0.8,2.3,1.2,3.5,1.8c-2.5,3.3-4.9,6.5-7.4,9.8c-12.2-9.7-24.4-19.2-36.5-29c-13.5-10.9-26.9-21.9-40.3-32.9
		c-8.3-6.8-16.6-13.6-25-20.3c-1.5-1.2-3.4-1.9-5.1-2.8C4.5,118.3,5.9,114.7,7.3,111z"/>
	<path class="st0" d="M195.1,161.2c-1.4-2-2.5-4.3-4.3-5.8c-16.4-13.4-33.1-26.5-49.5-39.9c-16.7-13.5-33.4-27.2-50-40.9
		c-2.7-2.2-4.8-5.2-7.2-7.8c3.2-1.4,6.4-2.8,9.6-4.2c16.7,13.5,33.4,27,50.1,40.5c20.3,16.4,40.6,32.8,60.9,49.2
		c1.4,1.2,2.3,3,3.5,4.6C203.7,158.3,199.4,159.8,195.1,161.2z"/>
	<path class="st0" d="M255.6,245c1,6.6,1.1,13.1-2.4,19.2c-5.9-4.7-11.6-9.6-17.7-14.1c-4.5-3.3-9.5-6.1-14.3-9.1c-4-10-8-20-12-30
		c1.7,0.6,3.7,0.8,5,1.8c7.3,5.7,14.4,11.7,21.7,17.4C242.3,235.3,249,240.1,255.6,245z"/>
	<path class="st0" d="M255.6,245c-6.6-4.9-13.3-9.7-19.8-14.8c-7.3-5.7-14.4-11.7-21.7-17.4c-1.3-1-3.3-1.2-5-1.8
		c0.6-0.9,1-2.3,1.9-2.7c12.7-5.3,24.3-2.3,32.5,8.8C249.7,225.4,254.1,234.6,255.6,245z"/>
	<path class="st0" d="M221.1,241c4.8,3,9.8,5.7,14.3,9.1c6.1,4.5,11.8,9.4,17.7,14.1c-3.1,7.5-8.8,12.5-16.8,16.2
		C231.2,267,226.2,254,221.1,241z"/>
</g>
</svg>
