<?xml version="1.0" encoding="UTF-8"?>
<svg id="Camada_2" data-name="Camada 2" xmlns="http://www.w3.org/2000/svg" viewBox="0 0 133.44 142.29">
  <defs>
    <style>
      .cls-1 {
        fill: #f0ff31;
      }
    </style>
  </defs>
  <g id="Camada_1-2" data-name="Camada 1">
    <g>
      <path class="cls-1" d="M99.33,141.98l-36.3-37.97c-.17-.18-.26-.41-.26-.66l.06-31.52c0-.83.98-1.26,1.59-.7l28.6,26.17c.15.14.26.33.3.54l7.63,43.33c.16.93-.98,1.5-1.63.82h0Z"/>
      <path class="cls-1" d="M24.66,76.18l-2.46,27.6c-.06.63.51,1.14,1.13,1.02l25.37-5.02c.34-.07.61-.31.72-.64l9.25-27.97c.23-.68-.35-1.36-1.06-1.24l-32.16,5.39c-.43.07-.75.42-.79.85h0Z"/>
      <path class="cls-1" d="M24.85,69.67h0l35.99-5.6c.2-.03.4,0,.58.09l27.49,14.02c2.88,1.47,5.08,4,6.14,7.05l6.15,17.73c.33.96,1.74.8,1.85-.21l3.51-32.11c.03-.3-.08-.59-.29-.8l-27.76-26.13c-.14-.13-.31-.22-.5-.25l-32.06-5.09c-.37-.06-.74.11-.95.42l-20.14,30.86v.02Z"/>
      <path class="cls-1" d="M112.27,23.99l-11.8,10.4c-.78.69-1.95-.2-1.48-1.14l6.84-13.68c.21-.42.08-.92-.3-1.19L79.46.17c-.19-.13-.43-.19-.66-.17l-10.73,1.27c-.51.06-.88.52-.84,1.03l1.15,12.23c.1,1.05-1.33,1.46-1.8.51l-6.05-12.25c-.18-.36-.57-.57-.97-.52L14.34,7.63c-.41.05-.73.35-.82.75l-1.83,8.66c-.05.26,0,.53.15.75l11.72,16.65c.6.85-.4,1.9-1.28,1.36l-11.71-7.3c-.56-.35-1.3-.04-1.43.61L.02,72.18c-.04.19-.02.4.06.58l12.27,28.04c.41.95,1.83.65,1.82-.39l-.12-25.72c-.02-3.29.93-6.51,2.71-9.27l22.42-34.64c2.08-3.21,5.91-4.81,9.65-4.04l27.67,5.72c3.67.76,7,2.65,9.54,5.41l21.48,23.4c.36.39.96.41,1.34.06l24.27-22.25c.45-.41.4-1.13-.1-1.48l-19.59-13.69c-.36-.25-.85-.22-1.17.07h0Z"/>
    </g>
  </g>
</svg>