<?xml version="1.0" encoding="utf-8"?>
<!-- Generator: Adobe Illustrator 27.8.1, SVG Export Plug-In . SVG Version: 6.00 Build 0)  -->
<svg version="1.1" id="Laag_1" xmlns="http://www.w3.org/2000/svg" xmlns:xlink="http://www.w3.org/1999/xlink" x="0px" y="0px"
	 viewBox="0 0 212.6 228.9" style="enable-background:new 0 0 212.6 228.9;" xml:space="preserve">
<style type="text/css">
	.st0{fill:#FFFFFF;}
</style>
<g>
	<path class="st0" d="M26.9,57.1c1.1-2.6,2.2-5.1,3.4-7.6c3.1-6.4,6.2-12.9,10.4-18.7C49.8,18.1,62.2,9.8,76.8,4.8
		c7.7-2.6,15.6-4,23.6-4.6c0.3,0,0.5-0.2,0.7-0.2c1,0,1.9,0,2.9,0c0.2,0.1,0.4,0.2,0.6,0.2c2.1,0,4.2,0,6.4,0
		c3.8,0.4,7.5,0.7,11.3,1.1c-0.3,0.4-0.6,0.8-1,1.1c-5.1,3-10.3,5.9-15.4,8.9c-7.5,4.4-15,8.8-22.5,13.2c-1.3,0.7-2.4,1.6-3.6,2.4
		c-2.5-3.5-5-7-7.4-10.6c-0.5-0.7-0.9-0.8-1.6-0.4c-8.7,4.3-16.2,10-22.2,17.6c-1.4,1.8-2.6,3.7-3.9,5.5c2.5,1.4,4.9,2.6,7.2,3.8
		c-2.8,1.6-5.6,3.3-8.4,4.9c-4.9,2.9-9.7,5.7-14.6,8.6C28.3,56.7,27.6,56.8,26.9,57.1z"/>
	<path class="st0" d="M111.1,0.2c-2.1,0-4.2,0-6.4,0c-0.2,0-0.4-0.1-0.6-0.2c2.3,0,4.6,0,7,0C111.1,0.1,111.1,0.1,111.1,0.2z"/>
	<path class="st0" d="M173,143.1c-13.8,7.4-28.5,10.5-44.2,10.4c-0.4,2.2-0.8,4.4-1.2,6.7c-2.2,12.9-4.5,25.9-6.7,38.8
		c-1.1,6.6-2.3,13.2-3.4,19.8c-1.1,6.7-7.6,11.3-14.2,9.9c-6.9-1.4-11.2-8-9.5-14.7c5.3-21.2,10.5-42.5,15.8-63.7c2-8,4-16.1,6-24.1
		c1.1-4.3,4.1-7.2,8.8-7.8c2.8-0.4,5.7-0.2,8.5-0.5c12.4-1.2,23.1-5.9,31.5-15.4c3.4-3.8,5-8.4,5.9-13.3c1-5.5,0.6-11-0.9-16.6
		c-6.1,3.1-12.3,5.7-18.8,7.9c-0.1-0.1-0.1-0.2-0.2-0.3c0.6-0.4,1.1-0.8,1.7-1.2c4.6-2.7,9.4-5.3,13.9-8.2c9.7-6,18.7-13,26.8-21.2
		c4.4-4.4,8.4-9.1,11.7-14.4c1.2-1.9,2.1-3.9,2.7-6.1c1-3.3,0-6.3-2.4-8.8c-1-1-2.3-1.8-3.5-2.8c-0.5,1.6-0.9,2.9-1.4,4.2
		c-2.9,7.5-7.5,13.9-12.8,19.9c-7.2,8.1-15.4,15-24.5,21c-2.4,1.6-4.7,3.3-7.1,4.9c-0.7,0.5-1.6,0.8-2.3,1.2
		c-0.1-0.1-0.2-0.3-0.3-0.4c0.4-0.5,0.7-1,1.2-1.4c4.3-3.9,8.7-7.6,12.9-11.6c10.3-9.6,19-20.6,25-33.4c0.7-1.4,1.1-3,1.4-4.5
		c0.6-3.9-1.4-6.3-5.4-6.6c-3.5-0.3-6.9,0.5-10.3,1.1c-2.6,0.5-5.1,1.1-7.7,1.6c-0.5,0.1-1.1,0.1-1.6,0.1c0-0.1-0.1-0.2-0.1-0.3
		c0.2-0.2,0.4-0.5,0.7-0.7c5.5-3.1,11.2-6,17.6-7c2.4-0.4,5-0.4,7.5-0.1c4.5,0.6,7.3,4,7.4,8.5c0,0.6,0,1.2,0,1.8
		c1.1,0.4,2.2,0.8,3.2,1.2c6,2.7,8.7,7.8,7.5,14.3c-1.1,5.7-4.1,10.4-7.7,14.8c-1.7,2-3.5,3.9-5.3,5.9c1,2.3,2.2,4.6,3.2,7
		c3.8,9.1,5.7,18.5,5.6,28.3c-0.1,8.6-2.1,16.8-5.5,24.7c-3.9,9-8.3,17.8-14.1,25.8c-7.5,10.3-16.4,19.3-27.4,25.9
		c-6,3.7-12.4,6.5-19.3,8.3c-2.4,0.6-4.5-0.7-5-3.1c-0.4-2.1,0.8-4.1,3.2-4.7c6.3-1.7,12.1-4.4,17.7-7.8c5.6-3.5,10.6-7.8,15.2-12.6
		c0.1-0.1,0.2-0.3,0.3-0.4C173.1,143.2,173.1,143.2,173,143.1z M188.8,119.2c-4.9-2.2-9.7-4.3-14.4-6.5c-0.7-0.3-1-0.1-1.4,0.4
		c-4.5,5.2-9.8,9.3-16,12.4c-2,1-4.1,1.9-6.2,2.9c2.8,4.1,5.5,8.1,8.3,12.2C170.9,136.1,181,129.4,188.8,119.2z M180.8,66.2
		c0.8,3.3,1.8,6.5,2.3,9.8c0.5,3.4,0.6,6.8,0.9,10.3c5.2,0.2,10.6,0.5,16,0.7c0.1-10.6-2.4-20.3-7-29.6
		C188.9,60.5,184.8,63.4,180.8,66.2z"/>
	<path class="st0" d="M76.9,119.1c-5,2.2-10.1,4.3-15.1,6.7c-8.9,4.3-17.7,8.8-27.2,11.7c-4.2,1.3-8.6,2.2-12.8,3.2
		c-0.3,0.1-0.6,0-1,0.1c0.3-0.3,0.4-0.8,0.8-1c1.7-1.1,3.5-2.1,5.2-3.1c4.3-2.5,8.7-5.1,13-7.6c0.2-0.1,0.3-0.4,0.4-0.6
		c4.6-1.6,9.1-3.3,13.7-4.9c0.1-0.1,0.1-0.3,0.2-0.4c-0.4-0.3-0.9-0.6-1.3-1c-1.1-1.2-2.2-2.4-3.3-3.6c0.8-0.5,1.7-0.9,2.5-1.4
		c5.6-3.2,11.1-6.5,16.7-9.7c5-2.9,10-5.8,14.9-8.7c1.7-1,3.4-2.1,5.1-3.2c1.7,4,3.3,8,5,12c1.7,4.1,1.8,8.4,1.3,12.8
		c-1.4,13.1-5.7,25.4-10.3,37.6c-0.5,1.2-1.1,2.4-1.5,3.7c-1.1,3.5-4.8,5.4-8.7,4.6c-1.3-0.3-2.7-0.8-3.9-1.4
		c-7.2-4-14.1-8.5-20.6-13.5c-0.7-0.5-1.2-0.6-1.9-0.2c-6.1,2.9-12.3,5.5-19,6.8c-4.3,0.8-8.7,1.2-13-0.1c-4.8-1.5-7.7-4.7-8.3-9.8
		c0-0.3,0-0.6,0-0.8c0-0.1,0.1-0.2,0.3-0.5c0.4,0.5,0.7,1,0.9,1.4c2.1,4.5,6.3,6.1,11,5.7c6.1-0.5,11.6-2.7,17.1-5.3
		c17.2-8.1,33.9-17.4,49.4-28.4c1.5-1.1,3-2.2,4.4-3.4c-0.1-0.1-0.1-0.2-0.2-0.3c-10.6,5.1-21.2,10.2-31.7,15.3
		c-0.1-0.1-0.2-0.3-0.2-0.4c0.4-0.3,0.7-0.6,1.1-0.9c5.4-3.6,10.9-7.1,16.4-10.6c0.3-0.2,0.6-0.4,0.8-0.6c0.1-0.1,0.2-0.1,0.3-0.2
		C77.2,119,77.1,119.1,76.9,119.1z M75.8,158.1c1.6-5.3,3.1-10.2,4.5-15.1c0.1-0.2-0.1-0.7-0.3-0.8c-2.9-1.7-5.9-3.3-8.7-4.9
		c-4.6,3-9.1,5.9-13.9,9.1C63.5,150.3,69.5,154.1,75.8,158.1z"/>
	<path class="st0" d="M79.9,26.9c1.2-0.8,2.4-1.7,3.6-2.4c7.5-4.4,15-8.8,22.5-13.2c5.1-3,10.3-5.9,15.4-8.9c0.4-0.2,0.7-0.7,1-1.1
		c12.5,1.9,24.4,5.8,35.5,11.9c0.2,0.1,0.5,0.3,0.7,0.5c-2,1.2-3.9,2.3-5.9,3.6c-0.6,0.4-1.1,1-1.6,1.5c-0.8-0.4-1.6-0.7-2.4-1.1
		c-11.2-5.4-23.1-8.3-35.4-9.4c-0.4,0-0.8,0-1.3,0c0.1,0.9,0.1,1.7,0.2,2.5c0.4,3.6,0.7,7.2,1.1,10.8c-0.4,0.1-0.8,0.2-1.1,0.4
		c-2.9,1.7-5.8,3.4-8.7,5.1c-5.1,3-10.3,6-15.4,8.9c-4.8,2.8-9.7,5.7-14.5,8.5c-5.5,3.2-11.1,6.4-16.6,9.7
		c-4.8,2.8-9.7,5.7-14.5,8.5c-6,3.5-12,7-18,10.5c-1.5,0.8-3,1.6-4.5,2.3c2.3-6.2,4.6-12.3,6.9-18.5c0.7-0.2,1.4-0.3,2-0.7
		c4.9-2.8,9.7-5.7,14.6-8.6c2.8-1.7,5.6-3.3,8.4-4.9c2.5,1.2,5,2.4,7.5,3.7c5.1-8.4,12.3-14.4,20.9-18.8
		C80.1,27.4,80,27.2,79.9,26.9z"/>
	<path class="st0" d="M88.8,95.5c-1.7,1.1-3.4,2.2-5.1,3.2c-5,2.9-10,5.8-14.9,8.7c-5.6,3.2-11.1,6.5-16.7,9.7
		c-0.8,0.5-1.7,0.9-2.5,1.4c-1-1.2-2.2-2.3-3.1-3.6c-2-2.7-3.8-5.4-5.7-8.2c2.3-1.3,4.5-2.6,6.8-3.9c0.6,0.9,1.2,1.7,1.9,2.6
		c4.4-2,8.7-4,13-6c-0.8-1.4-1.5-2.7-2.3-4c3.5-2,6.9-4,10.4-6c1.4,2.3,2.9,4.6,4.3,6.9c0.6,1.1,1.5,1.2,2.5,0.9
		c1.1-0.3,1-1.3,0.9-2.2c-0.3-2.2-0.8-4.4-1-6.6c-0.7-7.3,1.3-13.8,5.6-19.7c5.6-7.7,13.3-12.3,22.6-14.2c8.4-1.7,16.6-1.1,24.4,2.6
		c4.8,2.3,8.9,5.6,11.9,10.1c-0.6,0.3-1.2,0.6-1.7,1c-2.2,1.4-4.5,2.8-6.7,4.1c-2.7-3.1-5.9-5.5-9.8-6.9c-10.6-3.9-23.5-1-30.8,6.9
		c-4.7,5.1-6.4,11.1-5.1,17.9C87.9,91.9,88.4,93.7,88.8,95.5z"/>
	<path class="st0" d="M20,75.5c1.5-0.8,3.1-1.5,4.5-2.3c6-3.5,12-7,18-10.5c4.8-2.8,9.7-5.7,14.5-8.5c5.5-3.2,11.1-6.4,16.6-9.7
		c4.8-2.8,9.7-5.7,14.5-8.5c5.1-3,10.3-6,15.4-8.9c2.9-1.7,5.8-3.4,8.7-5.1c0.3-0.2,0.7-0.3,1.1-0.4c3.5,0.4,7.1,0.6,10.5,1.3
		c4.4,1,8.6,2.4,13,3.7c-3.2,1.9-6.4,3.7-9.6,5.7c-1,0.6-1.8,1.4-2.7,2.1c-3.2-0.5-6.5-1.1-9.7-1.3C99.5,32.1,85.8,35.7,75,47.2
		c-5.6,6-8.5,13.2-9.1,21.4c-0.3,0.1-0.6,0.1-0.9,0.2c-2.5,1.4-4.9,2.9-7.4,4.3c-1.4,0.8-2.8,1.4-4.2,2.1c-0.1-0.2-0.2-0.4-0.2-0.6
		c0.2-1.4-0.5-1.6-1.7-1.6c-3.1-0.1-6.1-0.4-9.2-0.6c-1.7-0.1-3.5-0.2-5.4-0.3c0.3,2.1,0.5,4,0.8,6c-1.1,0.5-2.1,1-3.2,1.5
		c-1.4,0.7-2.8,1.4-4.2,2.1c-0.4-1.9-0.8-3.8-1.2-6c-0.8,2-1.6,3.7-2.1,5.5c-0.9,3.6-1.6,7.3-2.4,11c-1.3,0.6-2.6,1.2-3.9,1.9
		c-1.5,0.8-3,1.6-4.5,2.4c0-1.9-0.1-3.8,0.1-5.7C16.8,85.6,18.2,80.5,20,75.5z"/>
	<path class="st0" d="M124.5,34.3c0.9-0.7,1.8-1.5,2.7-2.1c3.2-1.9,6.4-3.8,9.6-5.7c3.5,1.5,6.9,3,10.5,4.5
		c2.4-3.4,4.9-6.8,7.5-10.4c-1.3-0.7-2.5-1.4-3.7-2c0.5-0.5,1-1.1,1.6-1.5c1.9-1.2,3.9-2.4,5.9-3.6c5.1,2.7,9.9,5.9,14.3,9.5
		c2.7,2.2,5.2,4.6,7.7,7c1.8,1.7,1.8,3.2,0.4,5.1c-5.4,7.2-11.2,14-18.6,19.3c-2.4,1.7-3.2,1.7-5.1-0.6
		c-7.2-8.5-16.3-14.3-26.8-17.9C128.4,35.4,126.4,34.9,124.5,34.3z"/>
	<path class="st0" d="M133.3,72.2c2.2-1.4,4.5-2.8,6.7-4.1c0.6-0.3,1.1-0.7,1.7-1c2.5,3.4,3.9,7.2,4.6,11.3c1,5.5,0,10.6-3.1,15.2
		c-3.6,5.4-8.9,8.6-15.1,10c-9.5,2.3-17.9,0.2-24.8-6.9c-0.9-1-1.6-2.2-2.4-3.3c1.7-1,3.3-2,5.1-2.9c1.6-0.9,3.2-1.6,4.7-2.4
		c0.6,2.6,2.4,4.1,4.7,5c7,2.7,12.9,1.2,18.4-4.4c3-3,3.4-6.9,2.1-10.8C135.4,76,134.2,74.2,133.3,72.2z"/>
	<path class="st0" d="M110.9,88.2c-1.6,0.8-3.2,1.6-4.7,2.4c-1.7,0.9-3.4,1.9-5.1,2.9c-4.5-7.9-3.1-15.9,5.7-20.6
		c3.5-1.9,7.3-2.8,11.3-1.9c2.7,0.6,4.6,2.2,5.4,5c0.7,2.8,0.3,5.4-2,7.3c-2.1,1.8-4.6,3.1-7.6,2.5c-0.2,0-0.3,0-0.5-0.1
		C111.4,85.6,110.8,86.1,110.9,88.2z"/>
	<path class="st0" d="M40.3,128.4c-0.1,0.2-0.2,0.5-0.4,0.6c-4.3,2.5-8.7,5.1-13,7.6c-1.8,1-3.5,2-5.2,3.1c-0.3,0.2-0.5,0.6-0.8,1
		c-4.1,0.7-8.3,1.2-12.5,0c-5.4-1.5-9.2-5.7-8.3-12.3c1.3-0.6,2.6-1.3,3.9-1.9c0.8-0.4,1.7-0.8,2.5-1.2c-0.1,1.7-0.3,3.3-0.3,5
		c0,1.7,1.2,2.9,2.8,3.4c2.9,0.8,5.9,0.8,8.8,0.4c3.9-0.6,7.7-1.5,11.6-2.4c0.1,0,0.3-0.1,0.3-0.1c-2.3-3.9-4.5-7.7-6.7-11.5
		c2-1.1,4-2.3,6-3.4c0.5-0.3,1-0.3,1.5-0.5c2.1,3.4,4.2,6.8,6.3,10.2C38.2,128.7,38.6,128.8,40.3,128.4z"/>
	<path class="st0" d="M53.5,75.3c1.4-0.7,2.8-1.4,4.2-2.1c2.5-1.4,4.9-2.9,7.4-4.3c0.3-0.2,0.6-0.2,0.9-0.2c0.1,2.6,0,5.3,0.4,7.9
		c0.5,2.8,1.4,5.5,2.3,8.2c0.5,1.6,1.3,3.2,2,4.7c-3.5,2-6.9,4-10.4,6c-0.8-1.6-1.7-3.1-2.5-4.7C55.5,85.8,54,80.7,53.5,75.3z"/>
	<path class="st0" d="M30.5,116.3c-0.5,0.2-1.1,0.2-1.5,0.5c-2,1.1-4,2.2-6,3.4c-3.7-7.3-6.4-15-6.8-23.3c0-0.1,0-0.2,0.1-0.2
		c1.5-0.8,3-1.6,4.5-2.4c1.3-0.7,2.6-1.3,3.9-1.9c-0.2,4.7,0.2,9.4,1.8,13.9C27.7,109.6,29.1,112.9,30.5,116.3z"/>
	<path class="st0" d="M6.6,125.4c-0.8,0.4-1.7,0.8-2.5,1.2c-1.3,0.6-2.6,1.3-3.9,1.9c0.8-2.4,1.3-4.9,2.3-7.2
		c2.3-5.3,5.7-9.9,9.7-14c0.5-0.5,1.4-0.8,2.1-1.1c-0.1,0.8,0,1.7-0.3,2.4c-1.9,4.1-3.9,8.1-5.7,12.2C7.5,122.3,7.1,123.9,6.6,125.4
		z"/>
	<path class="st0" d="M43.7,95.7c1.3,2.4,2.6,4.8,3.9,7.2c-2.3,1.3-4.5,2.6-6.8,3.9c-1.3-2.4-2.7-4.8-4-7.2c0.2-0.1,0.4-0.2,0.6-0.3
		C39.5,98,41.6,96.9,43.7,95.7z"/>
	<path class="st0" d="M43.7,95.7c-2.1,1.2-4.2,2.4-6.3,3.6c-0.2,0.1-0.4,0.2-0.6,0.3c-2.4-4.2-3.9-8.7-5.2-13.3
		c-0.4-1.5-0.7-2.9-1-4.4c1.4-0.7,2.8-1.4,4.2-2.1c1-0.5,2.1-1,3.2-1.5c1,4.4,1.9,8.8,3.8,13C42.3,92.6,43,94.1,43.7,95.7z"/>
</g>
<g>
</g>
<g>
</g>
<g>
</g>
<g>
</g>
<g>
</g>
<g>
</g>
</svg>
