<?xml version="1.0" encoding="UTF-8"?>
<svg version="1.1" xmlns="http://www.w3.org/2000/svg" width="2834" height="1459">
<path d="M0 0 C1.06395996 0.33870117 2.12791992 0.67740234 3.22412109 1.02636719 C58.87723542 18.94495131 146.12944676 56.21090035 177.04638672 109.81420898 C178.80189164 113.83802761 178.7588181 117.71532847 178 122 C176.2913878 125.37250376 174.02726699 128.08668139 171.5625 130.9375 C170.92014404 131.71891357 170.27778809 132.50032715 169.6159668 133.30541992 C168.33819484 134.85565913 167.05042808 136.39772389 165.75195312 137.93066406 C164.29434741 139.65232878 162.86361585 141.38824784 161.453125 143.1484375 C159.33029718 145.79035095 157.17153763 148.39803259 155 151 C154.175 151.99902344 153.35 152.99804688 152.5 154.02734375 C137.2080348 172.42667681 120.62017176 188.86416343 101.78173828 203.60351562 C100.21010222 204.83532685 98.64911946 206.08070443 97.08984375 207.328125 C93.53534823 210.03107986 90.40675775 212.4016636 85.875 212.875 C77.71925757 211.03338074 72.89642827 203.87012299 67.47583008 197.89526367 C23.15548676 149.09569688 -41.45936408 120.83815647 -107 117 C-144.72210155 115.65862169 -181.88164483 121.3572906 -216 138 C-216.64775391 138.31163086 -217.29550781 138.62326172 -217.96289062 138.94433594 C-231.86611461 145.70980796 -244.74447849 154.50809797 -256 165.1171875 C-257.67796568 166.69683487 -259.37838695 168.13970797 -261.1875 169.5625 C-286.89731075 191.84433599 -301.90153737 228.36846518 -304.83227539 261.58349609 C-307.77521164 303.98405364 -293.82465728 347.92445928 -267 381 C-263.54754176 383.30163882 -262.05261287 383.34490322 -258 383 C-255.66854413 381.09170375 -255.66854413 381.09170375 -255.6875 377.8125 C-255.80625916 372.38916515 -257.08714943 367.1585415 -258.24609375 361.87890625 C-264.71865096 328.57709637 -256.99150826 295.98116875 -238.89453125 267.7109375 C-233.07969168 259.4703465 -226.21764891 252.02771078 -219 245 C-218.55011719 244.505 -218.10023438 244.01 -217.63671875 243.5 C-192.99922599 217.08958592 -151.38221349 203.45985389 -116.20019531 201.8737793 C-73.98112665 200.75696651 -34.5108199 211.84644828 -3.31201172 241.28540039 C17.13963126 261.26088171 30.97955133 288.47669249 31.38012695 317.34912109 C31.33920024 343.49934496 24.56656239 364.9494473 5.95703125 384.125 C-15.59616033 405.48543365 -45.67828901 415.6875854 -75.63769531 416.02734375 C-103.50973771 415.704724 -129.42247346 404.74121823 -149 385 C-163.05044372 370.26818025 -170.74393524 351.2784219 -170.46655273 330.92016602 C-169.8592625 315.62297538 -163.23009369 303.61322414 -152.25 293.1875 C-136.0569241 279.54727378 -116.07044327 271.81433301 -94.78515625 273.2109375 C-83.71224096 274.72152826 -75.60535859 278.94724299 -68.8125 287.875 C-64.07195586 296.04835197 -63.50104113 305.71459293 -65.6875 314.8828125 C-69.68281797 325.77005396 -76.96153826 331.14037758 -87.1640625 336.0390625 C-93.98230775 338.61698562 -101.04180535 338.20094331 -108.22021484 337.97802734 C-109.06535645 337.95562988 -109.91049805 337.93323242 -110.78125 337.91015625 C-111.54501953 337.88058838 -112.30878906 337.85102051 -113.09570312 337.82055664 C-115.24390774 337.81880718 -115.24390774 337.81880718 -117 340 C-117.97101282 345.44218815 -117.10469747 350.32235129 -114.375 355.08984375 C-106.66784939 365.79665241 -94.5078883 369.14432604 -82.08178711 371.17749023 C-76.98602154 371.93699676 -72.13153397 372.5131534 -67 372 C-66.21367188 371.94199219 -65.42734375 371.88398437 -64.6171875 371.82421875 C-47.99106149 369.76456433 -31.24121956 358.95531178 -20.68359375 346.3125 C-15.69635619 339.46228043 -12.99302913 332.39313659 -12 324 C-11.91621094 323.31808594 -11.83242188 322.63617187 -11.74609375 321.93359375 C-10.88701248 307.32921215 -17.77948957 291.35310427 -26.9140625 280.34375 C-27.60242188 279.5703125 -28.29078125 278.796875 -29 278 C-29.85335937 277.0409375 -30.70671875 276.081875 -31.5859375 275.09375 C-38.79555585 267.31042853 -46.64811473 261.93002658 -56 257 C-56.90105469 256.50886719 -57.80210937 256.01773437 -58.73046875 255.51171875 C-83.21548675 243.25022912 -115.0749227 242.44245862 -141 250 C-142.25941406 250.33902344 -143.51882813 250.67804688 -144.81640625 251.02734375 C-160.76939237 255.78109677 -175.43993256 264.1362635 -188 275 C-189.09828125 275.94746094 -189.09828125 275.94746094 -190.21875 276.9140625 C-205.21208152 290.89593911 -215.34651743 311.01563867 -216.3125 331.51171875 C-216.67627146 344.19888514 -215.56107832 355.82930807 -212 368 C-211.76200684 368.88051025 -211.52401367 369.76102051 -211.27880859 370.66821289 C-207.91557399 382.47181802 -202.79713522 393.59390859 -197.92333984 404.83374023 C-164.87711003 481.2404652 -198.57414137 565.93716285 -226.91864014 639.51171875 C-227.54729308 641.14736387 -228.16991784 642.785341 -228.78594971 644.42578125 C-232.76346209 654.97199615 -236.74993648 664.99598827 -247.3125 670.5 C-256.23215479 674.12833415 -268.06241028 674.75202633 -277.375 671.6875 C-279.27911923 670.85535078 -281.15045395 669.9472707 -283 669 C-283.66596191 668.66097656 -284.33192383 668.32195313 -285.01806641 667.97265625 C-307.85631471 656.20434613 -329.42087272 641.86104123 -350.4375 627.125 C-351.14382568 626.63290039 -351.85015137 626.14080078 -352.57788086 625.63378906 C-356.27172522 623.03252588 -359.8382855 620.34946624 -363.31640625 617.46484375 C-364.01902588 616.89556152 -364.72164551 616.3262793 -365.44555664 615.73974609 C-366.78017908 614.65016129 -368.09487004 613.53552483 -369.38452148 612.39306641 C-372.87435975 609.56450636 -372.87435975 609.56450636 -377.20288086 609.23144531 C-379.58398324 609.98484 -381.75364271 610.91063856 -384 612 C-384.63373535 612.28786377 -385.2674707 612.57572754 -385.92041016 612.87231445 C-387.81890498 613.7568462 -389.68931531 614.68817286 -391.5625 615.625 C-402.40437288 620.86995599 -413.65589259 624.98394293 -425 629 C-425.83289551 629.29680664 -426.66579102 629.59361328 -427.52392578 629.89941406 C-437.18170035 633.29154969 -446.90695752 635.77238967 -456.9375 637.8125 C-457.95577881 638.0197168 -458.97405762 638.22693359 -460.02319336 638.44042969 C-481.83713289 642.64544103 -507.37799865 643.914878 -527.1171875 632.140625 C-537.76374631 624.69668957 -544.8205504 615.44088694 -548.375 602.75 C-549.04992832 598.70043007 -549.14623023 595.09444632 -549 591 C-547.17578125 591.18359375 -547.17578125 591.18359375 -545 592 C-543.54296875 594.22265625 -543.54296875 594.22265625 -542.1875 597.0625 C-537.1102356 606.81286846 -531.26699647 612.71867611 -521 617 C-505.48797854 621.78300978 -488.30017677 619.56747615 -473 615 C-471.5135498 614.55672363 -471.5135498 614.55672363 -469.99707031 614.10449219 C-444.21262724 606.24556185 -420.15378545 594.83299722 -396 583 C-395.11473633 582.5683252 -394.22947266 582.13665039 -393.31738281 581.69189453 C-379.99393635 575.18267164 -366.97160434 568.18104969 -354 561 C-351.86328261 559.82161211 -349.72656382 558.64322677 -347.58984375 557.46484375 C-308.50932917 535.87164087 -269.53344846 513.74281319 -233 488 C-232.39752441 487.5776709 -231.79504883 487.1553418 -231.17431641 486.72021484 C-222.60421092 480.70565982 -214.25232658 474.44284633 -206 468 C-213.30729837 470.7875397 -220.3196299 474.00007438 -227.32421875 477.47265625 C-228.38751907 477.99580917 -229.4508194 478.5189621 -230.54634094 479.05796814 C-233.92845094 480.72267419 -237.30810248 482.39229544 -240.6875 484.0625 C-245.10715848 486.24274414 -249.52787424 488.42083343 -253.94921875 490.59765625 C-255.04154816 491.13567871 -256.13387756 491.67370117 -257.25930786 492.22802734 C-266.38081069 496.7130109 -275.54402968 501.10699976 -284.7199707 505.47924805 C-289.51597624 507.76534565 -294.30026797 510.07467933 -299.078125 512.3984375 C-300.11221245 512.90119453 -300.11221245 512.90119453 -301.16719055 513.41410828 C-303.89016493 514.73865538 -306.61260616 516.06429103 -309.33447266 517.39111328 C-333.15855594 529 -333.15855594 529 -336 529 C-336 527.68 -336 526.36 -336 525 C-334.40893555 523.54638672 -334.40893555 523.54638672 -332.13671875 522.1796875 C-331.28287598 521.65342773 -330.4290332 521.12716797 -329.54931641 520.58496094 C-328.60491699 520.02067383 -327.66051758 519.45638672 -326.6875 518.875 C-324.66607002 517.63068345 -322.64662797 516.38313321 -320.62890625 515.1328125 C-319.5527002 514.46797852 -318.47649414 513.80314453 -317.36767578 513.11816406 C-311.53827277 509.4516496 -305.83783017 505.59455889 -300.125 501.75 C-292.14316123 496.39084737 -284.14260715 491.08103857 -275.93017578 486.07910156 C-271.80867761 483.56086974 -267.90384161 480.83870716 -264 478 C-290.48114653 489.4814795 -316.69962506 501.37029965 -342.625 514.0625 C-487.69342491 585.04178957 -487.69342491 585.04178957 -549.71484375 566.26953125 C-562.56832143 561.30237281 -572.47980091 553.92537692 -578.296875 541.15234375 C-585.41081852 522.41380412 -580.87999509 503.67859075 -573.04174805 486.00830078 C-563.76796094 465.9926674 -550.76898481 448.08143054 -536.625 431.25 C-535.91150391 430.39088013 -535.91150391 430.39088013 -535.18359375 429.5144043 C-532.15081539 425.98306521 -529.10364671 423.31255229 -525 421 C-522.125 421.25 -522.125 421.25 -520 422 C-520.50983925 427.286228 -521.77379687 431.06810332 -524.25 435.75 C-524.97598379 437.15650847 -525.69977256 438.56415116 -526.421875 439.97265625 C-527.02999023 441.15239014 -527.02999023 441.15239014 -527.65039062 442.35595703 C-550.07270786 482.39394955 -550.07270786 482.39394955 -553.234375 526.609375 C-551.07108614 531.31366983 -548.39926695 534.03313123 -543.64453125 535.94921875 C-516.59828613 542.99989507 -487.27193564 535.57865133 -461.03344727 528.48730469 C-459 528 -459 528 -457 528 C-457.52001587 527.25447876 -457.52001587 527.25447876 -458.05053711 526.49389648 C-495.96741389 471.99112848 -523.42674006 408.4770494 -511.53027344 340.8203125 C-496.80135461 262.48307938 -459.89262267 173.40846665 -409 102 C-408.52030762 101.38189453 -408.04061523 100.76378906 -407.54638672 100.12695312 C-391.37651688 79.40914825 -373.18696216 61.03574721 -351.99316406 45.46679688 C-350.17980205 44.13231881 -348.38159732 42.78000827 -346.5859375 41.421875 C-315.38073161 18.13086425 -278.42015969 2.13729823 -241 -8 C-240.04158203 -8.26119629 -239.08316406 -8.52239258 -238.09570312 -8.79150391 C-220.2883036 -13.55524809 -202.24898963 -16.56825897 -184 -19 C-183.00871094 -19.13422363 -182.01742188 -19.26844727 -180.99609375 -19.40673828 C-120.99198986 -27.07992495 -57.27192484 -18.36432113 0 0 Z M-113 14 C-113.11740197 20.92613399 -112.78711925 27.70883094 -112.125 34.6015625 C-112.03621582 35.564039 -111.94743164 36.5265155 -111.85595703 37.51815796 C-111.57491686 40.55418827 -111.28757099 43.58958206 -111 46.625 C-110.80687219 48.69917973 -110.61416 50.77339821 -110.421875 52.84765625 C-109.95271594 57.89889771 -109.47790571 62.94957888 -109 68 C-107.95996826 68.12004395 -106.91993652 68.24008789 -105.84838867 68.36376953 C-61.8308917 73.49584723 -19.12017098 82.42803531 20.5 103.2109375 C24.5995195 105.30645081 28.7777853 107.16774073 33 109 C34.05574219 107.48986328 34.05574219 107.48986328 35.1328125 105.94921875 C41.36064438 97.07047301 47.68702534 88.27830492 54.18994141 79.59838867 C57.70996925 74.86940558 60.96260623 70.05315779 64 65 C17.01087494 39.3661622 -33.45179246 22.60890325 -86.5625 15.625 C-87.82819824 15.45709961 -89.09389648 15.28919922 -90.39794922 15.11621094 C-97.9715975 14.18273585 -105.37115123 13.7941715 -113 14 Z M-336 77 C-336.52754883 77.43135254 -337.05509766 77.86270508 -337.59863281 78.30712891 C-358.84469721 95.76152914 -379.48069152 115.73876364 -393 140 C-393 140.99 -393 141.98 -393 143 C-392.37246826 143.31114746 -391.74493652 143.62229492 -391.09838867 143.94287109 C-380.30501798 149.30072429 -369.52290935 154.66983841 -358.875 160.3125 C-357.35029376 161.11725068 -355.82555509 161.92193991 -354.30078125 162.7265625 C-352.16355673 163.85484833 -350.02764332 164.98523209 -347.89599609 166.12402344 C-345.95728998 167.15670106 -344.01122285 168.17388521 -342.0625 169.1875 C-340.98097656 169.75855469 -339.89945313 170.32960938 -338.78515625 170.91796875 C-336.15680825 172.14137903 -336.15680825 172.14137903 -333.8046875 171.9609375 C-331.24680145 170.59894623 -330.47889411 168.9584561 -329.0625 166.4375 C-309.56179217 134.51229055 -279.1947808 112.68622374 -247 95 C-248.34400328 91.23545351 -250.0282667 88.36808866 -252.4375 85.1875 C-255.82636927 80.62414895 -259.10277173 76.00355373 -262.3125 71.3125 C-262.99965088 70.30896484 -262.99965088 70.30896484 -263.70068359 69.28515625 C-264.64653872 67.90292914 -265.59200869 66.52043839 -266.53710938 65.13769531 C-269.03835605 61.4826693 -271.5512773 57.83567554 -274.0625 54.1875 C-276.39223195 50.80287124 -278.72070395 47.41894408 -281 44 C-297.7388407 44 -323.29855529 66.60048807 -336 77 Z M-426 280 C-425.05152318 327.42384107 -403.59670899 380.57079676 -375 418 C-369.66023116 416.37785316 -364.73082955 414.11787337 -359.69140625 411.75390625 C-358.80645981 411.34212631 -357.92151337 410.93034637 -357.00975037 410.50608826 C-354.19256788 409.19460671 -351.37744537 407.87877549 -348.5625 406.5625 C-345.75077803 405.25055598 -342.9386248 403.93954767 -340.1259613 402.62962341 C-338.38010519 401.81624013 -336.63484269 401.0015811 -334.89027405 400.18544006 C-330.29236497 398.04013457 -325.67562502 395.97043917 -321 394 C-321.79053176 392.54105115 -322.58256051 391.08291354 -323.375 389.625 C-323.92285156 388.614375 -324.47070312 387.60375 -325.03515625 386.5625 C-326.42494252 384.0206825 -327.85649551 381.50670474 -329.30859375 379 C-345.15257353 351.4635206 -355.22681757 321.63509918 -358.60546875 290.02734375 C-358.82060811 287.085553 -358.82060811 287.085553 -360 285 C-363.13186863 283.91164348 -366.31637746 283.74842645 -369.60717773 283.51928711 C-371.29429115 283.39927589 -371.29429115 283.39927589 -373.01548767 283.27684021 C-374.22596268 283.19450638 -375.43643768 283.11217255 -376.68359375 283.02734375 C-377.93125015 282.93997452 -379.17890656 282.85260529 -380.46437073 282.7625885 C-383.10285508 282.57855663 -385.74138962 282.39588066 -388.38012695 282.21557617 C-391.75399895 281.98496659 -395.12752533 281.74970061 -398.50096035 281.51279354 C-401.72836882 281.28651217 -404.95598284 281.06321634 -408.18359375 280.83984375 C-409.99626991 280.71330666 -409.99626991 280.71330666 -411.8455658 280.58421326 C-413.53740746 280.46893028 -413.53740746 280.46893028 -415.26342773 280.35131836 C-416.25285873 280.28327499 -417.24228973 280.21523163 -418.26170349 280.14512634 C-420.84757573 280.0080783 -423.41113065 279.97345516 -426 280 Z M-460 298 C-480.79237443 347.13121979 -483.03505072 393.53900339 -463.08251953 443.28759766 C-446.73255624 484.67912348 -446.73255624 484.67912348 -418 516 C-415.38372868 515.26829051 -412.86214579 514.46402349 -410.30078125 513.5703125 C-409.52132645 513.30436783 -408.74187164 513.03842316 -407.938797 512.76441956 C-405.39379467 511.89280973 -402.8530602 511.00946642 -400.3125 510.125 C-398.57864076 509.52701992 -396.844754 508.92911964 -395.11083984 508.33129883 C-382.27245604 503.88364485 -369.57699134 499.14513282 -357 494 C-358.82463936 490.02909888 -361.43472555 487.41912129 -364.5625 484.4375 C-369.30471159 479.80720318 -373.61357897 475.01877031 -377.73828125 469.8203125 C-379.73166143 467.33461217 -381.78827154 464.92139071 -383.88037109 462.51879883 C-420.91177227 419.76436293 -446.27777711 365.59171277 -456.04760742 310.02905273 C-456.27552979 308.75489502 -456.50345215 307.4807373 -456.73828125 306.16796875 C-456.93462158 305.02610107 -457.13096191 303.8842334 -457.33325195 302.70776367 C-457.7840651 299.87091278 -457.7840651 299.87091278 -460 298 Z M-288.796875 554.5703125 C-289.5798999 555.13024902 -290.3629248 555.69018555 -291.16967773 556.26708984 C-292.02118408 556.8802002 -292.87269043 557.49331055 -293.75 558.125 C-308.72427208 568.76177424 -324.30650317 578.46546042 -340 588 C-325.27049747 603.40765642 -304.34321152 614.04034508 -286.25 625.0625 C-285.6486322 625.42989288 -285.0472644 625.79728577 -284.42767334 626.17581177 C-278.07388696 630.05194107 -271.73117776 633.80849331 -265 637 C-260.88429127 625.06360401 -257.2349039 612.99998037 -253.64135742 600.89770508 C-252.67559392 597.64743012 -251.7042135 594.39886771 -250.73242188 591.15039062 C-250.11685407 589.0834326 -249.50160745 587.0163789 -248.88671875 584.94921875 C-248.45089729 583.49318489 -248.45089729 583.49318489 -248.00627136 582.00773621 C-247.74211929 581.1153273 -247.47796722 580.2229184 -247.20581055 579.3034668 C-246.85536934 578.12556831 -246.85536934 578.12556831 -246.49784851 576.9238739 C-245.91649269 575.00850391 -245.91649269 575.00850391 -246 573 C-246.65895264 572.64808594 -247.31790527 572.29617188 -247.99682617 571.93359375 C-271.06928617 559.58852828 -271.06928617 559.58852828 -280.8046875 553.29296875 C-284.44066101 551.15149681 -285.59708302 552.25485122 -288.796875 554.5703125 Z " fill="#8862AA" transform="translate(852,273)"/>
<path d="M0 0 C6.15297419 5.64121812 10.4968538 12.71080543 12 21 C12.06898242 23.59373914 12.09434752 26.15810197 12.0625 28.75 C12.05798828 29.44738281 12.05347656 30.14476562 12.04882812 30.86328125 C12.0371002 32.57555803 12.01916653 34.28779033 12 36 C13.155 36.165 14.31 36.33 15.5 36.5 C30.33887929 39.87034482 43.86673977 48.97851973 52 61.8125 C60.21968397 77.26629433 59.41694926 94.47667563 55 111 C47.2190836 136.26509327 30.34516106 159.34963142 11.4609375 177.54296875 C9.11939309 179.87825234 7.08657034 182.4364993 5 185 C4.34 185.66 3.68 186.32 3 187 C3.46672119 187.92389526 3.46672119 187.92389526 3.94287109 188.86645508 C38.76368398 258.29723923 50.82794995 337.75712559 26.14160156 412.60253906 C23.9698835 418.82013188 21.51728081 424.91554306 19 431 C18.56945313 432.04752441 18.13890625 433.09504883 17.6953125 434.17431641 C6.75780685 460.63365652 -5.4168037 486.33986195 -20 511 C-20.4753418 511.81001465 -20.95068359 512.6200293 -21.44042969 513.45458984 C-31.956478 531.3112667 -44.10721799 547.79766897 -57 564 C-57.44504883 564.55977539 -57.89009766 565.11955078 -58.34863281 565.69628906 C-62.93607929 571.44251498 -67.70311686 576.99134047 -72.6640625 582.41796875 C-74.55022094 584.50283619 -76.39130467 586.61306743 -78.2265625 588.7421875 C-82.22488418 593.31911503 -86.45138439 597.64345933 -90.75 601.9375 C-91.54567383 602.73236816 -92.34134766 603.52723633 -93.16113281 604.34619141 C-98.02412358 609.15875262 -102.92793521 613.67387511 -108.32421875 617.8828125 C-110.90214908 619.92257635 -113.3613093 622.05133683 -115.82543945 624.22485352 C-147.70176925 652.21240548 -201.30020256 688.75004778 -245.30859375 688.28125 C-250.39297407 687.74993595 -253.0141448 685.09243414 -256.3125 681.4375 C-259.64227118 676.62783052 -259.61931151 671.6598191 -259 666 C-257.29748205 661.09600808 -254.27117603 657.84745069 -250 655 C-246.62369257 653.73687184 -243.16375566 652.82142887 -239.6875 651.875 C-205.05760847 641.85964105 -173.0422275 624.52210397 -145 602 C-143.98550781 601.19820312 -142.97101563 600.39640625 -141.92578125 599.5703125 C-130.19501095 590.16561505 -119.54169821 579.69472286 -109 569 C-110.58748047 569.78310547 -110.58748047 569.78310547 -112.20703125 570.58203125 C-169.54675245 598.50504617 -228.53921637 610.72660753 -292 610 C-292.03562105 610.57391605 -292.0712421 611.14783211 -292.10794258 611.73913956 C-292.82874333 621.2537433 -294.52482834 630.58422983 -296.15185547 639.97558594 C-296.47934592 641.88475349 -296.80645838 643.79398592 -297.13322449 645.70327759 C-298.0204764 650.88091997 -298.91306816 656.05762892 -299.80666494 661.2341795 C-300.7534537 666.7241433 -301.69541663 672.21493519 -302.63796997 677.70562744 C-304.2307368 686.9800239 -305.82666132 696.25387231 -307.42480469 705.52734375 C-309.04272654 714.91561062 -310.6584971 724.30424341 -312.27148438 733.69335938 C-312.46770158 734.83550478 -312.66391878 735.97765019 -312.86608195 737.15440607 C-313.26094211 739.45290806 -313.65579405 741.75141145 -314.05063772 744.04991627 C-316.56423936 758.68219977 -319.07924803 773.31422748 -321.60760498 787.94396973 C-321.79469017 789.02660489 -321.98177536 790.10924005 -322.17452979 791.22468233 C-323.67001853 799.87854286 -323.67001853 799.87854286 -324.39396811 804.06602955 C-326.49100699 816.19878104 -328.5709184 828.33411309 -330.61391258 840.47608566 C-331.49850716 845.73321663 -332.39177517 850.988859 -333.28796065 856.24402547 C-333.85309748 859.56177845 -334.41154583 862.88031358 -334.96017075 866.20085907 C-335.54154921 869.71856672 -336.14005519 873.23294958 -336.74267578 876.74707031 C-336.8998621 877.72858818 -337.05704842 878.71010605 -337.21899796 879.72136688 C-339.91166281 895.0876331 -347.24671354 907.83538416 -360 917 C-372.99684243 924.35454948 -386.42540204 927.12933236 -401.125 923.8125 C-415.58664289 919.72633267 -426.48678711 911.08817671 -434 898 C-442.13259121 880.76783264 -439.58686759 863.22201814 -434.8203125 845.36328125 C-434.36801494 843.59431956 -433.91795969 841.8247833 -433.46994019 840.05473328 C-432.28435762 835.39370919 -431.07119751 830.74033834 -429.85083008 826.08831787 C-428.68667682 821.63620504 -427.54437814 817.17853201 -426.40234375 812.72070312 C-425.93817404 810.90975741 -425.47397582 809.098819 -425.00975037 807.28788757 C-424.77463682 806.37049994 -424.53952328 805.4531123 -424.29728508 804.50792503 C-423.55425482 801.61322366 -422.80815041 798.71932678 -422.06166077 795.82551575 C-417.39545508 777.70623061 -412.90927747 759.54394698 -408.44140625 741.375 C-408.25219109 740.60565014 -408.06297593 739.83630029 -407.86802697 739.0436368 C-406.89921928 735.10444657 -405.93052619 731.16522816 -404.96185017 727.22600555 C-404.76761011 726.43612527 -404.57337005 725.64624498 -404.37324393 724.83242893 C-403.97829027 723.22628188 -403.58336808 721.62012708 -403.18847692 720.01396465 C-398.63790762 701.5066158 -394.05079935 683.00838526 -389.45703125 664.51171875 C-389.05660524 662.89923471 -388.65618156 661.2867501 -388.25576019 659.67426491 C-386.04691508 650.77968733 -383.83720668 641.88532441 -381.62711596 632.99105626 C-380.21032997 627.28915792 -378.79410155 621.5871213 -377.37817383 615.88500977 C-376.97261111 614.25182025 -376.56704839 612.61863073 -376.16148567 610.98544121 C-375.55485362 608.54253669 -374.94824004 606.0996276 -374.3416841 603.65670419 C-372.16357468 594.88445299 -369.98364518 586.11266304 -367.79812622 577.34225464 C-367.02889794 574.25472306 -366.25978174 571.16716357 -365.49072266 568.07958984 C-365.30257374 567.32435964 -365.11442482 566.56912944 -364.92057443 565.79101348 C-362.49950321 556.06979106 -360.09985402 546.34360388 -357.72320652 536.61142635 C-356.52034908 531.68653896 -355.30981276 526.76354961 -354.09714025 521.84107071 C-353.2949308 518.58237478 -352.498462 515.32252746 -351.71000099 512.06046104 C-350.85346187 508.5177996 -349.98243058 504.97899285 -349.1081543 501.44067383 C-348.86564878 500.42043184 -348.62314327 499.40018986 -348.37328911 498.34903145 C-345.20903933 485.70042251 -339.75258821 475.43998812 -328.5703125 468.3515625 C-319.9267838 463.8064851 -310.78332162 461.95991792 -301.12109375 461.5703125 C-299.55417042 461.49900237 -297.98727678 461.42703757 -296.42041016 461.35449219 C-295.60630676 461.31755249 -294.79220337 461.28061279 -293.95343018 461.24255371 C-258.62833849 459.5920327 -225.37998969 452.97031147 -194 436 C-193.38253906 435.6685498 -192.76507812 435.33709961 -192.12890625 434.99560547 C-160.88678574 418.09480719 -133.96095734 392.54694575 -123.41821289 357.98828125 C-120.93750222 349.42452291 -118.84144045 340.89370605 -118 332 C-117.93441895 331.36658691 -117.86883789 330.73317383 -117.80126953 330.08056641 C-116.10285383 312.88868944 -117.60352029 295.59237577 -121.4140625 278.765625 C-122 276 -122 276 -122 273 C-122.75615601 273.39771606 -122.75615601 273.39771606 -123.52758789 273.8034668 C-144.24140607 284.61538413 -165.71663041 293.70871489 -187.625 301.8125 C-188.9562793 302.30979614 -188.9562793 302.30979614 -190.31445312 302.81713867 C-194.31022154 304.25405421 -197.68325755 305.4492936 -202 305 C-198.54961996 299.7531411 -194.05582574 297.43273745 -188.6875 294.5 C-187.7596167 293.98083008 -186.8317334 293.46166016 -185.87573242 292.92675781 C-182.92221803 291.27522401 -179.96158958 289.63700088 -177 288 C-153.66011476 275.03069852 -130.83090062 261.39586798 -109 246 C-107.77348815 245.14315666 -106.54692824 244.28638211 -105.3203125 243.4296875 C-92.14209596 234.17006706 -79.3470144 224.34039859 -67 214 C-66.49549316 213.58041016 -65.99098633 213.16082031 -65.47119141 212.72851562 C-58.42086011 206.8621604 -51.54894606 200.84217363 -44.82421875 194.60546875 C-42.28643906 192.26425291 -39.71361639 189.97207009 -37.125 187.6875 C-28.50652278 179.94618605 -20.10779929 171.74805951 -12.62109375 162.8984375 C-10.7190635 160.67099967 -8.7339228 158.52977029 -6.75 156.375 C-1.16655061 150.16907146 3.96293589 143.6520504 9 137 C9.53206055 136.2977832 10.06412109 135.59556641 10.61230469 134.87207031 C20.54854128 121.66464472 30.2885501 108.04136514 35 92 C35.18949219 91.36707031 35.37898438 90.73414063 35.57421875 90.08203125 C37.63805981 79.9900378 35.93796532 70.22098826 30.45703125 61.5625 C25.49845346 54.84515892 19.41345641 48.93839872 12 45 C11.57589844 46.13308594 11.15179687 47.26617187 10.71484375 48.43359375 C10.43882324 49.16819824 10.16280273 49.90280273 9.87841797 50.65966797 C9.315137 52.16039375 8.75406413 53.66195125 8.19580078 55.16455078 C-1.86573523 82.05344948 -16.13063617 105.62575453 -34 128 C-34.73605469 128.92941406 -35.47210937 129.85882813 -36.23046875 130.81640625 C-41.00621065 136.75861255 -46.03346933 142.40530116 -51.2265625 147.98046875 C-53.30697003 150.21977265 -55.313207 152.51283884 -57.30859375 154.828125 C-61.17047185 159.25888422 -65.27151411 163.41901269 -69.4375 167.5625 C-70.14970703 168.27857422 -70.86191406 168.99464844 -71.59570312 169.73242188 C-75.67972924 173.80902923 -79.86233378 177.70766198 -84.23364258 181.47436523 C-86.4082856 183.35264364 -88.51425348 185.30043776 -90.625 187.25 C-95.66907965 191.80122301 -100.95594816 195.97282579 -106.32421875 200.12890625 C-108.73304444 201.99706602 -111.1077703 203.89735237 -113.45703125 205.83984375 C-122.45401598 213.25273756 -131.89885777 219.82970201 -141.5703125 226.33203125 C-146.34953246 229.54581797 -151.0616932 232.84298246 -155.75 236.1875 C-163.80847665 241.92275975 -172.02198347 247.41414966 -180.27685547 252.86181641 C-181.85406627 253.90360682 -183.4272442 254.95149613 -185 256 C-188.1875 256.125 -188.1875 256.125 -191 256 C-189.54143197 250.85211285 -186.42214766 248.19675274 -182.5625 244.75 C-181.93142334 244.17499756 -181.30034668 243.59999512 -180.65014648 243.00756836 C-176.19954813 238.98453349 -171.59528815 235.18813176 -166.91015625 231.44140625 C-162.63141998 227.8518624 -158.61251126 224.00016625 -154.55810547 220.16137695 C-150.87988811 216.6976206 -147.14036152 213.40334356 -143.1875 210.25 C-138.57521148 206.56838097 -134.46082954 202.56238948 -130.33984375 198.34375 C-128.2515378 196.25195773 -126.11741003 194.29831464 -123.875 192.375 C-117.79767489 187.15363617 -112.32032221 181.46077004 -107.10546875 175.38671875 C-104.89440929 172.88030441 -102.62107512 170.44320472 -100.33300781 168.00732422 C-94.26899133 161.54632095 -88.48668909 154.96455535 -83 148 C-82.49919922 147.37174316 -81.99839844 146.74348633 -81.48242188 146.09619141 C-62.36066379 122.0924024 -46.21214755 97.0013144 -32.33520508 69.62963867 C-31.44146296 67.86944551 -30.53754386 66.1143846 -29.6237793 64.36450195 C-24.04550985 53.55384656 -19.41838646 40.92917753 -23.0625 28.8125 C-25.32809298 23.5470941 -29.01344465 20.48487274 -34.08203125 17.96484375 C-55.80665043 10.00778562 -86.5474736 19.84085408 -108.18310547 25.11962891 C-114.30244947 26.57743603 -119.70710324 27.28245779 -126 27 C-125.67871094 25.12548828 -125.67871094 25.12548828 -125 23 C-122.76054149 21.42748405 -120.65335817 20.14809299 -118.25 18.875 C-117.54335205 18.49102051 -116.8367041 18.10704102 -116.10864258 17.71142578 C-86.25603787 1.71654137 -31.3827985 -25.6399204 0 0 Z M-33 216.1875 C-34.45604852 217.29426281 -35.91311772 218.39968385 -37.37109375 219.50390625 C-38.13147949 220.08027832 -38.89186523 220.65665039 -39.67529297 221.25048828 C-51.17528321 229.90507031 -62.95263254 238.1283425 -75 246 C-73.80858171 251.62075807 -72.43024348 257.1283597 -70.8425293 262.64916992 C-65.50125247 281.31438299 -63.19548586 299.81536962 -62.4375 319.1875 C-62.39431641 320.23486328 -62.35113281 321.28222656 -62.30664062 322.36132812 C-62.20200491 324.90746397 -62.09982454 327.45367178 -62 330 C-54.74099859 330.39431456 -47.48184497 330.78569398 -40.22249031 331.17345428 C-36.85072294 331.35364786 -33.47901342 331.53480521 -30.10742188 331.71826172 C-26.22018269 331.92927507 -22.33277161 332.13683277 -18.4453125 332.34375 C-17.25011993 332.40937134 -16.05492737 332.47499268 -14.82351685 332.54260254 C-8.20772361 332.8910328 -1.62496542 333.08913303 5 333 C4.31951528 290.13337533 -4.68500931 249.36744753 -24 211 C-27.57753323 211 -30.25042836 214.06680408 -33 216.1875 Z M-108.41015625 442.23828125 C-109.30395951 443.25458118 -110.18745885 444.28000168 -111.0625 445.3125 C-112.04904112 446.42602329 -113.03736517 447.53796917 -114.02734375 448.6484375 C-114.77540283 449.49486816 -114.77540283 449.49486816 -115.53857422 450.35839844 C-137.693848 475.24514433 -167.4509038 491.6931742 -198 504 C-198 508.15567826 -197.78161084 508.81635444 -195.5703125 512.03515625 C-194.76037842 513.23072144 -194.76037842 513.23072144 -193.93408203 514.45043945 C-193.33708496 515.31241943 -192.74008789 516.17439941 -192.125 517.0625 C-190.8536705 518.93195434 -189.58286487 520.80176502 -188.3125 522.671875 C-187.62414062 523.67927734 -186.93578125 524.68667969 -186.2265625 525.72460938 C-182.56198944 531.11538923 -178.95736016 536.54595658 -175.3480835 541.97384644 C-173.3828607 544.92815325 -171.41397832 547.88001817 -169.4453125 550.83203125 C-167.72265625 553.41601562 -167.72265625 553.41601562 -166 556 C-131.47861237 544.02219837 -100.17034056 525.36412954 -73 501 C-72.45585449 500.51756836 -71.91170898 500.03513672 -71.35107422 499.53808594 C-65.14035589 494.02609659 -59.31056698 488.39934431 -54 482 C-53.04595503 480.89437779 -52.09006117 479.7903496 -51.1328125 478.6875 C-50.10908822 477.50024722 -49.08565164 476.31274631 -48.0625 475.125 C-47.56484131 474.55281738 -47.06718262 473.98063477 -46.55444336 473.39111328 C-43.8642347 470.59083458 -43.8642347 470.59083458 -43 467 C-67.09469277 455.54936858 -67.09469277 455.54936858 -91.375 444.5 C-92.40036865 444.03811279 -93.4257373 443.57622559 -94.48217773 443.1003418 C-95.89478882 442.47832886 -95.89478882 442.47832886 -97.3359375 441.84375 C-98.14595215 441.48474609 -98.9559668 441.12574219 -99.79052734 440.75585938 C-103.64996476 439.43554797 -105.40221484 439.44484457 -108.41015625 442.23828125 Z " fill="#CF171F" transform="translate(1100,282)"/>
<path d="M0 0 C26.07 0 52.14 0 79 0 C80.45609991 4.36829974 81.6291557 8.45166077 82.62548828 12.91748047 C82.77596965 13.58736055 82.92645102 14.25724064 83.08149242 14.94742012 C83.40828084 16.40345461 83.73370669 17.85979545 84.05791664 19.31640625 C84.76606736 22.49617414 85.48204077 25.67416726 86.19735813 28.85232925 C86.77588145 31.42334744 87.35336624 33.99459759 87.93081665 36.56585693 C94.11101616 64.06144812 100.44613062 91.51006996 107.30348969 118.84537506 C107.80715013 120.85366797 108.30934979 122.86232183 108.81134033 124.87103271 C112.26309595 138.66639468 115.81240607 152.40764142 120 166 C133.27855379 119.21158724 145.58427466 72.17858482 157.25317383 24.96508789 C157.55715088 23.73812195 157.86112793 22.51115601 158.17431641 21.24700928 C158.74154602 18.95600994 159.30670641 16.66449688 159.86938477 14.37237549 C160.12171875 13.35335144 160.37405273 12.33432739 160.6340332 11.28442383 C160.95921684 9.96345451 160.95921684 9.96345451 161.29096985 8.61579895 C162.07857985 5.71009823 163.04797972 2.85606085 164 0 C181.82 0 199.64 0 218 0 C219.32198859 3.30497148 220.33176688 5.98548448 221.10302734 9.36279297 C221.29936768 10.21160034 221.49570801 11.06040771 221.69799805 11.93493652 C221.90851807 12.86132935 222.11903809 13.78772217 222.3359375 14.7421875 C222.81780789 16.82349498 223.30008986 18.90470721 223.78271484 20.98583984 C224.04058777 22.10287292 224.29846069 23.21990601 224.56414795 24.37078857 C230.32047135 49.2475515 236.44855269 74.02539025 242.71747589 98.7773819 C243.36760169 101.34577221 244.01634394 103.91450838 244.66473389 106.4833374 C248.65605863 122.28804965 252.66712998 138.08449803 257.0390625 153.7890625 C257.32760101 154.82888275 257.61613953 155.868703 257.91342163 156.94003296 C258.17611847 157.86941681 258.43881531 158.79880066 258.70947266 159.75634766 C258.93623688 160.55900055 259.1630011 161.36165344 259.39663696 162.18862915 C259.84948469 163.99861918 259.84948469 163.99861918 261 165 C273.49697052 119.96219525 284.64528502 74.73502449 294.86173725 29.12996387 C295.5906805 25.87638574 296.32117697 22.62315691 297.05157661 19.36990547 C297.56172545 17.09301317 298.0687914 14.8154491 298.57566833 12.53782654 C298.88381684 11.16304778 299.19208321 9.78829544 299.50048828 8.41357422 C299.76709259 7.21836151 300.0336969 6.0231488 300.30838013 4.79171753 C301 2 301 2 302 0 C327.74 0 353.48 0 380 0 C359.34871723 73.75458134 337.06439531 147.41477727 310.0625 219.125 C309.72068695 220.03459473 309.3788739 220.94418945 309.02670288 221.88134766 C308.52851547 223.20271729 308.52851547 223.20271729 308.02026367 224.55078125 C307.59060555 225.69051392 307.59060555 225.69051392 307.15226746 226.85327148 C302.71094121 238.40092598 297.88803501 249.59458498 293 261 C273.86 261 254.72 261 235 261 C230.4974686 249.74367151 230.4974686 249.74367151 228.85620117 244.78320312 C228.4839592 243.66223236 228.11171722 242.5412616 227.72819519 241.38632202 C227.33707047 240.19664825 226.94594574 239.00697449 226.54296875 237.78125 C226.1186781 236.49659246 225.69426173 235.21197644 225.26972961 233.92739868 C224.1375525 230.49677685 223.01069145 227.06443384 221.88589478 223.6313858 C221.18443532 221.49064711 220.48189995 219.35026349 219.77929688 217.2098999 C213.45145044 197.91768764 207.30752126 178.5813371 201.5 159.125 C201.19943695 158.11848389 200.8988739 157.11196777 200.58920288 156.07495117 C198.69801481 149.72467649 196.83672201 143.36622922 195 137 C194.74879395 136.13290405 194.49758789 135.26580811 194.23876953 134.37243652 C193.51716221 131.87251552 192.803809 129.37041015 192.09375 126.8671875 C191.88012817 126.12695343 191.66650635 125.38671936 191.44641113 124.62405396 C190.49903932 121.24363194 190 118.54483593 190 115 C189.34 115 188.68 115 188 115 C187.89381348 116.10029541 187.78762695 117.20059082 187.67822266 118.33422852 C187.01588251 123.58927812 185.60255774 128.56892046 184.1484375 133.65234375 C183.85778915 134.68420807 183.56714081 135.71607239 183.26768494 136.77920532 C182.31041383 140.16732111 181.34346582 143.55256832 180.375 146.9375 C180.04253265 148.10538055 179.71006531 149.27326111 179.36752319 150.47653198 C168.7903499 187.60975237 157.39286848 224.43338806 145 261 C125.86 261 106.72 261 87 261 C84.43259546 255.86519092 82.12136952 251.0455525 80.0390625 245.75 C79.77216614 245.07163086 79.50526978 244.39326172 79.23028564 243.69433594 C78.35635089 241.46499398 77.48976799 239.23291281 76.625 237 C76.32209045 236.22011719 76.01918091 235.44023438 75.70709229 234.63671875 C64.36542808 205.37133939 54.38564674 175.59934092 44.57910156 145.79052734 C43.50108588 142.5154074 42.41657463 139.24253326 41.32714844 135.97119141 C33.44723307 112.304265 25.94220642 88.53466655 18.7373848 64.65445328 C17.96975179 62.1105049 17.2007402 59.56697389 16.43162346 57.02347374 C10.72072841 38.07472454 5.35953682 19.05613092 0 0 Z " fill="#CF171F" transform="translate(1477,377)"/>
<path d="M0 0 C16.75678375 15.91367513 28.06432648 37.25633563 33.359375 59.671875 C33.55257324 60.46142578 33.74577148 61.25097656 33.94482422 62.06445312 C43.57992187 103.31053647 38.94481677 153.37005792 16.671875 189.921875 C11.76168553 197.66362602 5.86637696 204.24655089 -0.640625 210.671875 C-1.32769531 211.35765625 -2.01476563 212.0434375 -2.72265625 212.75 C-26.22782747 234.72114952 -57.42484171 238.42393981 -88.09033203 237.80810547 C-102.48013272 237.2559456 -116.34107856 232.99169357 -129.640625 227.671875 C-129.970625 259.681875 -130.300625 291.691875 -130.640625 324.671875 C-155.060625 324.671875 -179.480625 324.671875 -204.640625 324.671875 C-204.640625 211.151875 -204.640625 97.631875 -204.640625 -19.328125 C-195.44048652 -22.15893684 -186.87314946 -24.53132869 -177.515625 -26.328125 C-176.86487 -26.45408051 -176.21411499 -26.58003601 -175.54364014 -26.70980835 C-164.50541164 -28.8263304 -153.43156564 -30.37610933 -142.265625 -31.640625 C-141.55484802 -31.72175537 -140.84407104 -31.80288574 -140.11175537 -31.88647461 C-89.92505745 -37.52827516 -39.51855357 -34.84180167 0 0 Z M-130.640625 32.671875 C-130.73684536 34.38013188 -130.76250128 36.09239614 -130.76087952 37.80335999 C-130.76225418 38.91540298 -130.76362885 40.02744598 -130.76504517 41.17318726 C-130.76144989 42.40388947 -130.75785461 43.63459167 -130.75415039 44.90258789 C-130.75429642 46.19020523 -130.75444244 47.47782257 -130.7545929 48.80445862 C-130.75488086 52.3456226 -130.74898436 55.88675299 -130.74201894 59.42790914 C-130.73578517 63.12482488 -130.73518158 66.82174131 -130.73399353 70.5186615 C-130.73088028 77.52391399 -130.72266699 84.52915095 -130.71264404 91.53439659 C-130.7014827 99.50766376 -130.6959724 107.48093165 -130.69094861 115.45420468 C-130.68048437 131.86010389 -130.66288505 148.26598747 -130.640625 164.671875 C-128.60959783 165.64006735 -126.5750372 166.6008491 -124.5390625 167.55859375 C-123.40645996 168.09444092 -122.27385742 168.63028809 -121.10693359 169.18237305 C-105.70623321 175.80018351 -86.53971259 177.34044174 -70.640625 171.671875 C-58.04712947 166.466325 -50.3679734 158.29443624 -44.890625 145.859375 C-35.20856386 121.1127911 -35.01759747 89.10208849 -45.3359375 64.52734375 C-45.76648437 63.58503906 -46.19703125 62.64273438 -46.640625 61.671875 C-47.00929688 60.86363281 -47.37796875 60.05539062 -47.7578125 59.22265625 C-54.70909981 45.48787133 -66.31270095 36.54594416 -80.640625 31.671875 C-90.2542497 28.78629247 -122.91084195 24.94209195 -130.640625 32.671875 Z " fill="#845EA8" transform="translate(1972.640625,806.328125)"/>
<path d="M0 0 C0.82177734 0.32452148 1.64355469 0.64904297 2.49023438 0.98339844 C3.27205078 1.30083008 4.05386719 1.61826172 4.859375 1.9453125 C5.53967773 2.22133301 6.21998047 2.49735352 6.92089844 2.78173828 C10.14513476 4.29516913 13.17254279 6.08191299 16.25 7.875 C11.7212868 20.89450053 7.13365559 33.89102501 2.4230957 46.84594727 C1.75408361 48.68991495 1.08817148 50.53500971 0.42504883 52.38110352 C-0.54963228 55.09384407 -1.53347841 57.80309442 -2.51953125 60.51171875 C-2.81535599 61.34064133 -3.11118073 62.1695639 -3.41596985 63.02360535 C-5.52180991 68.76090496 -5.52180991 68.76090496 -7.75 69.875 C-9.51147461 69.25756836 -9.51147461 69.25756836 -11.65234375 68.21484375 C-12.450354 67.83602051 -13.24836426 67.45719727 -14.07055664 67.06689453 C-14.93414795 66.65294434 -15.79773926 66.23899414 -16.6875 65.8125 C-46.39725114 52.07397949 -81.94138336 45.63864963 -113.8203125 55.859375 C-117.95777132 57.39176716 -120.64962822 58.74797746 -123.75 61.875 C-124.41 61.875 -125.07 61.875 -125.75 61.875 C-130.58828139 71.17938729 -133.25580088 79.22558078 -130.8125 89.6875 C-127.39296836 100.07216061 -118.35750587 106.95669137 -108.94628906 111.82128906 C-96.93113381 117.58578551 -84.24267561 121.98261075 -71.73193359 126.52832031 C-34.62670712 140.03192419 6.5467689 155.74745181 24.36572266 193.82910156 C35.69264905 220.03551879 35.9927886 254.00965796 25.6875 280.5703125 C15.34748876 304.34109921 -2.54610754 321.09346952 -26.51318359 330.55639648 C-28.58603897 331.34709014 -30.66520365 332.11642054 -32.75 332.875 C-34.33167969 333.45894531 -34.33167969 333.45894531 -35.9453125 334.0546875 C-89.51271568 352.09697212 -158.86946875 345.10519879 -209.625 321.5625 C-210.3267334 321.23725342 -211.0284668 320.91200684 -211.75146484 320.5769043 C-215.06188793 318.96276916 -216.66418168 318.00372748 -218.75 314.875 C-218.24468994 312.37721252 -218.24468994 312.37721252 -217.17285156 309.36547852 C-216.77874084 308.23743301 -216.38463013 307.10938751 -215.97857666 305.94715881 C-215.53705261 304.72838547 -215.09552856 303.50961212 -214.640625 302.25390625 C-214.1930435 300.99021475 -213.74658655 299.72612443 -213.3012085 298.46165466 C-212.12383248 295.12972724 -210.92978826 291.80400047 -209.73266602 288.47912598 C-208.76053556 285.7702153 -207.80041289 283.05712669 -206.84091568 280.34372044 C-204.85501119 274.72924347 -202.85967303 269.11803265 -200.84472656 263.51391602 C-200.30939301 262.02191429 -200.30939301 262.02191429 -199.76324463 260.49977112 C-198.87722212 258.204564 -197.89682764 256.04911185 -196.75 253.875 C-192.91618038 255.07306863 -189.29433515 256.49319442 -185.65209961 258.18457031 C-152.41512776 273.52536749 -108.25828737 282.021057 -72.4375 271.125 C-63.07963915 267.67405266 -56.70991764 264.15620999 -51.80859375 255.2421875 C-48.25416223 247.29390151 -48.36715631 236.48744149 -51.375 228.375 C-61.85120227 206.59741514 -93.46153984 198.70897839 -114.22607422 191.16162109 C-150.6312657 177.86971593 -187.00046588 163.76663544 -205.25 126.83984375 C-215.51134328 103.66020224 -215.76383125 74.51900691 -206.9609375 50.7578125 C-196.11483528 24.93709172 -177.44736904 5.85832174 -151.30371094 -4.90136719 C-103.0499162 -23.98606006 -47.43643344 -18.74701853 0 0 Z " fill="#CF171F" transform="translate(1452.75,302.125)"/>
<path d="M0 0 C75.9 0 151.8 0 230 0 C230 21.45 230 42.9 230 65 C179.84 65 129.68 65 78 65 C78 88.43 78 111.86 78 136 C122.55 136 167.1 136 213 136 C213 157.78 213 179.56 213 202 C168.45 202 123.9 202 78 202 C78 248.53 78 295.06 78 343 C52.26 343 26.52 343 0 343 C0 229.81 0 116.62 0 0 Z " fill="#976DAF" transform="translate(1264,696)"/>
<path d="M0 0 C0.70465393 0.00215515 1.40930786 0.0043103 2.13531494 0.00653076 C30.33006436 0.14472857 57.84815373 7.16898314 79.375 26.3125 C80.1175 26.91320312 80.86 27.51390625 81.625 28.1328125 C106.46690124 48.74814026 115.93036664 82.05006514 118.81079102 112.97851562 C121.74921915 149.18984256 121.74921915 149.18984256 117.375 162.3125 C35.205 162.8075 35.205 162.8075 -48.625 163.3125 C-44.19329883 179.56207095 -38.33232055 191.07664878 -23.55859375 199.78515625 C8.3785738 216.41289594 49.92979489 210.97990847 83.046875 200.6796875 C83.7181543 200.46425293 84.38943359 200.24881836 85.08105469 200.02685547 C88.16357057 199.06693194 91.26876397 198.19214622 94.375 197.3125 C95.66596574 204.8548947 96.94661281 212.39898996 98.22021484 219.94433594 C98.65438148 222.50918912 99.09087957 225.07364882 99.52978516 227.63769531 C100.16146303 231.33036099 100.78465057 235.02437613 101.40625 238.71875 C101.70154602 240.4285907 101.70154602 240.4285907 102.00280762 242.17297363 C102.97023204 247.97427597 103.60024745 253.43103888 103.375 259.3125 C58.47344321 279.48695693 -2.43019512 281.8710683 -48.82421875 265.16015625 C-78.50049667 253.3926602 -101.62726799 232.73844926 -114.5859375 203.37109375 C-116.71043008 198.27608049 -118.44935649 193.10855159 -120 187.8125 C-120.22655273 187.04413818 -120.45310547 186.27577637 -120.68652344 185.48413086 C-124.63069873 170.96630369 -126.13287578 156.26273828 -126.01611328 141.26025391 C-125.99999842 138.81225944 -126.01610419 136.36591479 -126.03515625 133.91796875 C-126.08069548 100.1082513 -115.86779498 67.13562416 -93.625 41.3125 C-93.03589844 40.57902344 -92.44679688 39.84554687 -91.83984375 39.08984375 C-77.66501872 22.02588241 -56.9304133 10.86652996 -36 4.5625 C-35.01628418 4.26436401 -35.01628418 4.26436401 -34.01269531 3.96020508 C-22.75499662 0.73681148 -11.67424524 -0.06429723 0 0 Z M-34.625 75.3125 C-42.86408091 84.83392813 -48.625 97.6394022 -48.625 110.3125 C-17.275 110.3125 14.075 110.3125 46.375 110.3125 C46.375 95.91648204 41.9923152 84.15044112 32.25 73.5625 C13.65565986 56.0235982 -16.72369677 57.89338676 -34.625 75.3125 Z " fill="#CF171F" transform="translate(2241.625,369.6875)"/>
<path d="M0 0 C0.92554687 0.74894531 1.85109375 1.49789063 2.8046875 2.26953125 C28.06645726 23.84580202 37.92678115 57.34316206 40.65625 89.40234375 C43.40001185 128.19997629 43.40001185 128.19997629 39 137 C-43.17 137.495 -43.17 137.495 -127 138 C-122.34319315 154.29882396 -117.23275513 165.13251654 -102.7734375 173.97265625 C-71.51420443 190.59014923 -30.42808704 185.98809866 2.29345703 176.10693359 C3.76624067 175.6488619 5.23745684 175.18567456 6.70605469 174.71435547 C9.7875013 173.75476492 12.89677516 172.88663567 16 172 C19.3 192.13 22.6 212.26 26 233 C19.8786412 236.0606794 14.86214454 238.19972789 8.4375 240 C7.53418945 240.25491211 6.63087891 240.50982422 5.70019531 240.77246094 C-4.73445803 243.61306516 -15.3117043 245.41825222 -26 247 C-26.74137207 247.11327637 -27.48274414 247.22655273 -28.24658203 247.34326172 C-71.16443604 253.75208493 -119.8426631 250.90059164 -156.06933594 224.48217773 C-180.46754689 205.90375729 -194.01712264 181.64813347 -201 152 C-201.17789062 151.28602051 -201.35578125 150.57204102 -201.5390625 149.83642578 C-207.02696082 126.96473844 -206.52702675 97.79961629 -201 75 C-200.81195801 74.2064209 -200.62391602 73.4128418 -200.43017578 72.59521484 C-195.83717344 53.96377577 -187.8367336 36.15506575 -176 21 C-175.59249512 20.47583496 -175.18499023 19.95166992 -174.76513672 19.41162109 C-169.71787919 12.9738917 -164.49768827 7.00587209 -158 2 C-156.49179688 0.83017578 -156.49179688 0.83017578 -154.953125 -0.36328125 C-141.27676312 -10.68782643 -126.44553591 -17.34282366 -110 -22 C-108.82179688 -22.34160156 -107.64359375 -22.68320312 -106.4296875 -23.03515625 C-70.59966532 -31.50049116 -28.4249518 -23.42928589 0 0 Z M-113 50 C-121.23908091 59.52142813 -127 72.3269022 -127 85 C-95.32 85 -63.64 85 -31 85 C-33.80764705 69.09000006 -36.83730724 54.1047765 -50.625 44.375 C-70.11469574 31.36267729 -96.22384226 33.6757253 -113 50 Z " fill="#CF171F" transform="translate(2056,395)"/>
<path d="M0 0 C-1.51207309 10.65990192 -3.96508359 21.10778031 -6.3684082 31.59423828 C-7.06859935 34.65163291 -7.76218976 37.71047425 -8.45507812 40.76953125 C-8.89805107 42.71362976 -9.34139665 44.6576434 -9.78515625 46.6015625 C-10.09610985 47.9732811 -10.09610985 47.9732811 -10.41334534 49.37271118 C-10.60702194 50.21474091 -10.80069855 51.05677063 -11.00024414 51.92431641 C-11.16964005 52.665336 -11.33903595 53.40635559 -11.51356506 54.16983032 C-12 56 -12 56 -13 58 C-13.91136719 57.76925781 -14.82273437 57.53851562 -15.76171875 57.30078125 C-23.83140356 55.26536626 -31.91115997 53.27036778 -40 51.3125 C-40.87100342 51.09827393 -41.74200684 50.88404785 -42.6394043 50.66333008 C-52.72310141 48.23926224 -62.33074566 47.7642167 -72.6875 47.6875 C-73.97333984 47.65849609 -75.25917969 47.62949219 -76.58398438 47.59960938 C-85.660391 47.53998669 -97.21542671 47.84042137 -104.1875 54.5625 C-108.41205895 60.24380341 -108.6449242 64.03891338 -108 71 C-104.2041712 80.70045138 -91.87604808 85.11060071 -83 89 C-78.2062707 90.96454936 -73.38528155 92.85829832 -68.5625 94.75 C-45.9443185 103.62997438 -23.60844811 112.77159034 -6 130 C-5.44828125 130.515625 -4.8965625 131.03125 -4.328125 131.5625 C9.75243384 146.09727041 11.50921587 166.6083605 11.42016602 185.72021484 C11.23041603 194.73727971 10.41728756 202.56865659 7 211 C6.525625 212.18207031 6.05125 213.36414063 5.5625 214.58203125 C-2.91650146 233.39481574 -18.95342769 245.04481596 -37.88769531 252.234375 C-85.99709997 269.67208801 -142.8464564 262.78951931 -190 246 C-189.26615066 239.10692759 -187.92391712 232.40492424 -186.49609375 225.625 C-186.2533522 224.4599292 -186.01061066 223.2948584 -185.76051331 222.09448242 C-184.98916108 218.39569078 -184.21339695 214.69784068 -183.4375 211 C-182.91181724 208.48313392 -182.38642348 205.96620745 -181.86132812 203.44921875 C-180.5775639 197.29877615 -179.29018201 191.14909935 -178 185 C-170.57848036 185.96277972 -170.57848036 185.96277972 -167.15234375 187.234375 C-166.4759082 187.47639648 -165.79947266 187.71841797 -165.10253906 187.96777344 C-164.38807617 188.2259082 -163.67361328 188.48404297 -162.9375 188.75 C-155.957582 191.16849322 -148.95299645 193.11309735 -141.75 194.75 C-140.88882568 194.94819336 -140.02765137 195.14638672 -139.14038086 195.35058594 C-126.79297343 198.07043281 -114.69292161 199.35359846 -102.07666016 199.31567383 C-99.86962342 199.31249225 -97.66390594 199.33616672 -95.45703125 199.36132812 C-85.93693505 199.40361189 -76.24575755 199.14745453 -67.875 194.125 C-64.12944676 189.88003966 -63.51488563 185.79209889 -63.70703125 180.265625 C-64.34927905 175.29890869 -66.27617056 172.43261941 -70.01171875 169.328125 C-82.96354535 160.46313851 -98.460264 155.1655076 -113 149.5625 C-140.00369953 139.10369285 -165.12862261 127.0344539 -177.75 99.3125 C-185.62350483 79.04407172 -185.49637212 55.02400044 -177.8125 34.75 C-175.04869844 28.54400922 -171.21019483 23.29831675 -167 18 C-166.06800781 16.75476563 -166.06800781 16.75476563 -165.1171875 15.484375 C-150.02020532 -2.23090298 -124.4030571 -10.74210027 -102 -13 C-100.99453125 -13.10957031 -99.9890625 -13.21914063 -98.953125 -13.33203125 C-70.41774877 -15.99391336 -24.62128284 -16.41418856 0 0 Z " fill="#7D59A5" transform="translate(2216,785)"/>
<path d="M0 0 C0 25.41 0 50.82 0 77 C29.37 77 58.74 77 89 77 C89 97.46 89 117.92 89 139 C59.63 139 30.26 139 0 139 C0.09107756 156.38293373 0.09107756 156.38293373 0.20898438 173.765625 C0.2630875 180.86651574 0.31420512 187.96733127 0.34643555 195.06835938 C0.37265166 200.80029937 0.41318051 206.53198339 0.46318626 212.26376343 C0.47973213 214.43871856 0.49132216 216.61371784 0.49761391 218.78872681 C0.41244278 247.26534507 0.41244278 247.26534507 13 272 C14.99921928 273.55054328 14.99921928 273.55054328 17.1875 274.6875 C18.22970703 275.28111328 18.22970703 275.28111328 19.29296875 275.88671875 C26.66043122 278.91662756 34.04724481 279.35794231 41.9375 279.3125 C42.94095459 279.30831055 43.94440918 279.30412109 44.97827148 279.29980469 C58.23351599 279.10204372 70.64915768 276.71307006 83.27734375 272.76953125 C86 272 86 272 89 272 C90.45419168 279.75745017 91.89534226 287.51724075 93.32739258 295.27880859 C93.81530275 297.91986107 94.30737034 300.56008857 94.80297852 303.19970703 C95.51324176 306.99110221 96.21274793 310.784347 96.91015625 314.578125 C97.13405533 315.76053772 97.35795441 316.94295044 97.58863831 318.16119385 C97.78892136 319.26203308 97.98920441 320.36287231 98.19555664 321.49707031 C98.37542618 322.46525696 98.55529572 323.4334436 98.74061584 324.43096924 C98.99835285 326.98368601 98.93680264 328.6209538 98 331 C95.92138672 332.14086914 95.92138672 332.14086914 93.1796875 333.03515625 C92.17760254 333.36821777 91.17551758 333.7012793 90.14306641 334.04443359 C89.06460449 334.38039551 87.98614258 334.71635742 86.875 335.0625 C85.22056885 335.589646 85.22056885 335.589646 83.53271484 336.12744141 C48.28180394 347.14367416 3.59884227 349.344896 -30.08154297 332.04663086 C-48.84674296 321.86140941 -61.44815367 305.99626601 -68.08203125 285.6875 C-70.12934537 278.57174155 -71.54804216 271.43380815 -72.6875 264.125 C-72.80689941 263.37226807 -72.92629883 262.61953613 -73.04931641 261.84399414 C-75.3166154 246.14516341 -75.14206889 230.23641351 -75.11352539 214.41577148 C-75.11324268 212.19654339 -75.11340289 209.9773152 -75.1139679 207.75808716 C-75.11425259 201.78613547 -75.1084092 195.81420423 -75.10139394 189.84225726 C-75.09510549 183.58161192 -75.09455228 177.32096601 -75.09336853 171.06031799 C-75.09062231 160.56926124 -75.08439344 150.07821141 -75.07543945 139.5871582 C-75.06623414 128.79028358 -75.05916864 117.99341097 -75.05493164 107.1965332 C-75.05466892 106.5289255 -75.05440619 105.86131779 -75.05413551 105.17347955 C-75.05283029 101.82366432 -75.05156663 98.47384907 -75.05032361 95.12403381 C-75.03989569 67.41601738 -75.02232767 39.70800922 -75 12 C-71.64416563 11.35705028 -68.28805727 10.71554181 -64.93190002 10.07427979 C-63.98820006 9.89345667 -63.04450009 9.71263355 -62.07220316 9.52633095 C-55.11359637 8.1977846 -48.14938805 6.96958347 -41.15234375 5.859375 C-40.0817421 5.68746643 -39.01114044 5.51555786 -37.90809631 5.33843994 C-35.69670623 4.98418975 -33.48507304 4.63145368 -31.27319336 4.28027344 C-27.8812252 3.74105402 -24.49040082 3.1950027 -21.09960938 2.6484375 C-18.92975157 2.30168216 -16.75983203 1.95531291 -14.58984375 1.609375 C-13.58267807 1.44693298 -12.57551239 1.28449097 -11.53782654 1.11712646 C-10.60487259 0.96987122 -9.67191864 0.82261597 -8.71069336 0.67089844 C-7.89467148 0.54084412 -7.0786496 0.41078979 -6.23789978 0.27679443 C-4 0 -4 0 0 0 Z " fill="#CF171F" transform="translate(2464,300)"/>
<path d="M0 0 C0.00097681 0.62426606 0.00195362 1.24853213 0.00296003 1.89171535 C0.06126161 38.90999333 0.13508076 75.92821025 0.22898628 112.94641565 C0.24025413 117.39355742 0.25139263 121.8406995 0.26245117 126.2878418 C0.26465486 127.17316897 0.26685854 128.05849614 0.269129 128.97065141 C0.30447886 143.29626696 0.32935604 157.62188246 0.35034702 171.94752542 C0.37212749 186.65246475 0.40519924 201.3573476 0.44870156 216.06223887 C0.47517958 225.13225872 0.49290329 234.20220823 0.49934604 243.2722648 C0.50461171 249.49619277 0.5208682 255.7200323 0.54566566 261.94391284 C0.55964034 265.53206579 0.56886663 269.12006057 0.56500816 272.70824242 C0.56094382 276.60625681 0.58007409 280.50396877 0.60127258 284.40193176 C0.59642501 285.52550215 0.59157743 286.64907254 0.58658296 287.80669051 C0.67338656 297.50425347 2.20726359 307.01541738 8 315 C16.74655592 323.58074443 28.25851443 325.58131494 40 327 C39.42335686 334.48370423 38.47290325 341.82171711 37.1875 349.21484375 C37.01371826 350.23300674 36.83993652 351.25116974 36.66088867 352.30018616 C36.29643356 354.43069181 35.92995647 356.56085249 35.56152344 358.69067383 C34.99740176 361.95252348 34.43958887 365.21540493 33.8828125 368.47851562 C33.52640533 370.55735405 33.16964707 372.63613232 32.8125 374.71484375 C32.64580811 375.68775864 32.47911621 376.66067352 32.30737305 377.66307068 C32.15051025 378.56823929 31.99364746 379.4734079 31.83203125 380.40600586 C31.69514893 381.19889511 31.5582666 381.99178436 31.41723633 382.80870056 C31.0195651 384.89724532 30.53785645 386.94356008 30 389 C1.10015781 389.97415198 -31.05240697 386.15017168 -53.60546875 366.3359375 C-68.91140449 351.40453526 -74.40685506 331.14678306 -75.09191239 310.18801582 C-75.12546301 306.94249052 -75.12848377 303.69831251 -75.12025452 300.45262146 C-75.12110894 299.21169882 -75.12196337 297.97077619 -75.12284368 296.69224983 C-75.12420043 293.2692871 -75.12109644 289.84638222 -75.11606562 286.42342651 C-75.11173084 282.72416367 -75.11320969 279.02490248 -75.1139679 275.32563782 C-75.11449121 268.92350788 -75.11136448 262.52138816 -75.10573006 256.11926079 C-75.09758904 246.86295905 -75.09499717 237.60666223 -75.09374207 228.3503573 C-75.09155564 213.3311436 -75.08490663 198.31193535 -75.07543945 183.29272461 C-75.06625476 168.70646186 -75.0591791 154.1202006 -75.05493164 139.53393555 C-75.05466892 138.63422739 -75.05440619 137.73451924 -75.05413551 136.8075472 C-75.05283043 132.2937934 -75.05156673 127.78003959 -75.05032361 123.26628578 C-75.03996372 85.84418668 -75.02235653 48.42209376 -75 11 C-66.10802703 9.56024803 -57.21525337 8.12557717 -48.32142448 6.69733429 C-44.19141647 6.0339417 -40.06170238 5.36882146 -35.93261719 4.69970703 C-31.94567263 4.05369232 -27.95801278 3.41227593 -23.96982193 2.77400208 C-22.45058103 2.53004085 -20.93160225 2.28444136 -19.41289902 2.03715515 C-17.28098852 1.69031302 -15.14820909 1.34937851 -13.01513672 1.00976562 C-11.8026828 0.81435181 -10.59022888 0.61893799 -9.34103394 0.41760254 C-6.18442649 0.02305184 -3.17677066 -0.07826777 0 0 Z " fill="#9067AC" transform="translate(1593,655)"/>
<path d="M0 0 C24.75 0 49.5 0 75 0 C75 86.13 75 172.26 75 261 C50.25 261 25.5 261 0 261 C0 174.87 0 88.74 0 0 Z " fill="#8A63AA" transform="translate(1649,778)"/>
<path d="M0 0 C8.83596659 7.19566456 13.97732363 16.63788323 15.22119141 28.02490234 C15.99869332 41.6990104 13.9491128 53.52672737 5.26171875 64.55859375 C-3.28391974 73.78316034 -14.63182188 78.39470147 -27.07421875 79.12109375 C-39.89712135 79.50152891 -51.38820912 75.51221717 -61 67 C-69.55634671 58.8503535 -73.51424683 50.32319373 -74.203125 38.51953125 C-74.37187479 25.17423512 -72.1541858 13.35755979 -62.8125 3.3125 C-45.4370731 -12.89704328 -19.0220813 -13.72952185 0 0 Z " fill="#9068AC" transform="translate(1716,669)"/>
</svg>
